<?xml version="1.0" encoding="UTF-8" standalone="no"?>
<svg
   xmlns:dc="http://purl.org/dc/elements/1.1/"
   xmlns:cc="http://creativecommons.org/ns#"
   xmlns:rdf="http://www.w3.org/1999/02/22-rdf-syntax-ns#"
   xmlns:svg="http://www.w3.org/2000/svg"
   xmlns="http://www.w3.org/2000/svg"
   id="svg8"
   version="1.1"
   viewBox="0 0 193.40613 105.83333"
   height="400"
   width="730.98383">
  <defs
     id="defs2" />
  <metadata
     id="metadata5">
    <rdf:RDF>
      <cc:Work
         rdf:about="">
        <dc:format>image/svg+xml</dc:format>
        <dc:type
           rdf:resource="http://purl.org/dc/dcmitype/StillImage" />
        <dc:title></dc:title>
      </cc:Work>
    </rdf:RDF>
  </metadata>
  <path
     id="path497"
     style="opacity:1;vector-effect:none;fill:#0099dd;fill-opacity:1;stroke:none;stroke-width:0.79374997;stroke-linecap:butt;stroke-linejoin:miter;stroke-miterlimit:4;stroke-dasharray:none;stroke-dashoffset:0;stroke-opacity:0.2265625"
     d="m 144.06507,35.346781 c -9.6376,0.248656 -19.27502,0.507964 -28.91102,0.813322 -1.96681,0.08649 -3.9376,0.109839 -5.90112,0.253116 -0.92143,0.14349 -1.70773,0.688896 -2.50155,1.141756 -2.27509,1.367071 -4.42689,2.926121 -6.56729,4.49228 -4.95598,3.654824 -9.829465,7.41948 -14.753705,11.11657 -2.911759,2.180975 -5.844886,4.334065 -8.82999,6.413844 -0.416743,0.32026 -0.888305,0.576099 -1.25998,0.950395 -0.694505,0.774639 -0.784886,1.929128 -0.478959,2.889813 0.369942,1.160788 0.968136,2.238311 1.282437,3.419077 0.777111,2.666901 0.872357,5.461083 1.105872,8.211498 0.249286,3.340919 0.467054,6.690622 0.398152,10.042542 -0.06908,2.980713 -0.369809,5.949128 -0.700614,8.910291 -0.221898,1.978668 -0.428915,3.968799 -0.363722,5.962104 0.04864,0.677661 0.51843,1.239401 1.073221,1.590771 1.055895,0.67504 2.323694,0.87202 3.540738,1.05493 1.576347,0.20686 3.152183,0.41727 4.728108,0.62753 2.911825,0.37487 5.84633,0.67476 8.785876,0.59048 0.377028,0.0162 0.633422,-0.29973 0.825379,-0.58164 0.495062,-0.78595 0.706855,-1.72714 0.663741,-2.6507 0.279161,-0.42648 0.810274,-0.57653 1.279305,-0.68707 1.024954,-0.169767 2.053684,0.08445 3.080081,0.11079 2.65366,0.18086 5.31426,0.22442 7.97298,0.26594 3.99047,0.0318 7.98078,0.0843 11.9712,0.1163 5.39623,0.0245 10.79041,-0.16559 16.18623,-0.19631 5.15203,-0.0215 10.30243,0.13629 15.4527,0.24908 3.83052,0.0913 7.66115,0.17725 11.492,0.25406 0.56309,0.80275 0.80794,1.82028 1.55311,2.49452 0.76425,0.41365 1.65009,0.46103 2.48626,0.62931 2.9931,0.43062 6.02445,0.41635 9.0413,0.43044 1.55744,-0.024 3.17093,-0.0368 4.62486,-0.66893 0.77416,-0.30813 1.5178,-0.87525 1.75509,-1.70837 0.4306,-1.26676 0.36823,-2.625665 0.3741,-3.94446 -0.0251,-2.349363 -0.1606,-4.6972 -0.40742,-7.033719 -0.2918,-2.971865 -0.67236,-5.934157 -1.00203,-8.901939 -0.21546,-1.928515 -0.47583,-3.85362 -0.62762,-5.788152 -0.05,-2.478393 0.53064,-4.905635 0.91795,-7.338529 0.37759,-2.111935 0.72156,-4.24094 0.75901,-6.390563 -0.14104,-1.016587 -0.79583,-1.875568 -1.52212,-2.562319 -1.16649,-1.040267 -2.55735,-1.780549 -3.77568,-2.753733 -3.14223,-2.33688 -6.1129,-4.891002 -9.11646,-7.400496 -4.51836,-3.777322 -9.02012,-7.612071 -13.99403,-10.787469 -1.95784,-1.242737 -3.98709,-2.438951 -6.22613,-3.097073 -1.42549,-0.427822 -2.92633,-0.570795 -4.41026,-0.539293 z m 3.21036,1.770025 c 0.88648,0.290057 1.74065,0.671829 2.59026,1.054567 3.12531,1.453559 5.98751,3.405963 8.71222,5.502845 3.8454,2.910078 7.5257,6.031966 11.11457,9.251298 0.28445,0.150575 0.2687,0.316526 0.0156,0.494609 -1.33708,1.403002 -3.13821,2.264002 -4.97875,2.796948 -3.37426,1.039654 -6.92264,1.349143 -10.43777,1.412583 -3.78767,0.06442 -7.57622,0.0361 -11.36403,0.09291 -7.2219,0.06082 -14.44371,0.156351 -21.66595,0.155907 -5.85531,-0.03292 -11.71208,-0.170655 -17.55596,-0.550655 -2.49529,-0.149865 -4.99219,-0.327477 -7.469326,-0.669434 -2.33038,-0.401348 -4.556741,-1.246502 -6.715644,-2.18978 -0.330293,-0.151376 -0.660565,-0.302753 -0.990836,-0.454131 0.393931,-1.147362 1.348917,-1.96757 2.280825,-2.685382 5.631495,-4.359996 11.262971,-8.719992 16.894441,-13.079987 5.02151,-0.351151 10.05296,-0.534172 15.08495,-0.64772 4.46077,-0.102331 8.92157,-0.203329 13.38154,-0.33685 3.63376,-0.0984 7.26814,-0.194978 10.90355,-0.191113 0.0666,0.01444 0.13305,0.02892 0.19969,0.04338 z m 24.48968,18.39004 c 1.33939,0.907736 2.65865,1.845048 3.95653,2.811216 -4.33247,3.782737 -8.96038,7.207955 -13.64379,10.539808 -0.76152,0.543907 -1.5244,1.085947 -2.28645,1.629114 0.13727,1.267597 1.2425,2.326473 2.49886,2.472828 1.84276,0.409422 3.61075,1.083406 5.4171,1.621187 3.52464,1.11828 7.04925,2.236558 10.57386,3.354839 -0.49353,2.723021 -0.87406,5.49951 -1.9195,8.081145 -0.32354,0.851946 -0.77338,1.711189 -1.54878,2.233971 -1.45607,1.11103 -3.26711,1.59223 -5.03572,1.938157 -1.80815,0.358012 -3.63763,0.5973 -5.46519,0.830691 -1.78488,0.188959 -3.61226,0.273502 -5.37526,-0.129807 -0.98522,-0.359718 -1.76111,-1.093363 -2.56281,-1.741789 -1.86865,-1.565465 -3.55762,-3.371696 -5.65639,-4.641869 -1.76044,-1.021878 -3.76844,-1.492261 -5.74993,-1.867678 -3.04608,-0.54737 -6.14566,-0.69291 -9.23352,-0.787249 -5.73171,-0.12792 -11.46523,-0.04609 -17.19677,0.04856 -3.68569,0.0813 -7.35804,0.475981 -11.00073,1.029252 -1.15125,0.430508 -2.00484,1.372291 -2.74568,2.315865 -1.01504,1.336341 -1.8093,2.865396 -3.08312,3.986844 -0.82214,0.684509 -1.89396,1.093947 -2.97089,1.020336 -1.515552,-0.01533 -3.000963,-0.360673 -4.477133,-0.669994 -2.533332,-0.563916 -5.048383,-1.298505 -7.372766,-2.471703 -1.204295,-0.592371 -2.357235,-1.282532 -3.501712,-1.981832 -0.18747,-1.875095 -0.501416,-3.760438 -0.303662,-5.648461 0.129497,-0.477721 0.626403,-0.68448 0.985706,-0.964548 1.804709,-1.19841 3.894999,-1.835775 5.855437,-2.72074 2.630532,-1.146118 5.301379,-2.19637 7.962497,-3.268689 0.278628,-0.11146 0.557279,-0.222907 0.835907,-0.334361 0.412278,-1.151006 -0.180584,-2.553607 -1.294853,-3.058146 -1.509777,-0.861222 -2.848299,-1.979691 -4.278868,-2.959974 -3.21491,-2.294186 -6.413138,-4.613993 -9.52354,-7.048834 -0.224742,-0.04685 -0.351617,-0.381731 -0.156151,-0.53361 0.979464,-1.822139 3.376947,-2.72195 5.31133,-1.982117 1.14139,0.380086 2.27605,0.794908 3.459176,1.02887 4.346393,1.041033 8.808242,1.538086 13.269342,1.710883 4.14655,0.148177 8.29659,0.106418 12.44496,0.13807 8.86659,0.03632 17.73326,0.106663 26.59996,0.06868 4.20941,-0.02963 8.4214,-0.0087 12.62721,-0.209237 1.96453,-0.111838 3.9317,-0.271188 5.86974,-0.620644 1.73226,-0.351448 3.33204,-1.132824 4.95412,-1.80653 1.16991,-0.49734 2.32376,-1.030929 3.47952,-1.559988 0.094,0.04918 0.18792,0.09833 0.28201,0.147511 z m -90.770188,4.012925 c 0.506635,0.242032 0.907363,0.648428 1.371729,0.957261 4.214919,3.103469 8.433348,6.202149 12.646602,9.307835 0.447862,0.326589 0.895724,0.653177 1.343586,0.979768 -0.08529,0.299234 -0.441509,0.35793 -0.659521,0.532272 -1.689162,0.983485 -3.599756,1.467259 -5.404509,2.184958 -1.810818,0.682055 -3.620725,1.366474 -5.415416,2.090161 -0.733732,0.2881 -1.464642,0.583265 -2.194864,0.880114 -1.373595,-2.089661 -2.317498,-4.415668 -3.392495,-6.663386 -1.043457,-2.332141 -2.075964,-4.669136 -3.097608,-7.010924 0.198132,-0.934349 0.99017,-1.592498 1.794047,-2.023723 0.907119,-0.481775 1.822746,-0.991371 2.830574,-1.22566 0.05931,-0.0076 0.118169,-0.01088 0.177919,-0.0087 z m 96.566138,0.273311 c 1.60358,0.700817 3.12422,1.572333 4.70272,2.325329 -0.9654,4.111333 -1.99775,8.206918 -2.93126,12.325675 -0.0626,0.289028 -0.12527,0.578056 -0.18791,0.867084 -0.36321,0.198753 -0.78975,0.07525 -1.18242,0.09935 -1.96834,-0.100976 -3.83256,-0.799603 -5.71194,-1.330245 -3.23206,-0.951828 -6.46554,-1.898938 -9.69096,-2.873137 -0.004,-0.271283 0.3446,-0.290865 0.48072,-0.472502 4.80711,-3.642847 9.61423,-7.285692 14.42134,-10.92854 0.032,-0.01533 0.0657,-0.01377 0.0997,-0.0131 z M 79.042702,73.259154 c 0.947345,2.96292 1.782031,5.962641 2.45308,9.000589 0.09018,0.258382 0.129718,0.579116 -0.06264,0.803962 -0.571673,1.041533 -1.28237,1.996839 -2.021655,2.924011 -0.274763,-4.686806 -0.549504,-9.373612 -0.824268,-14.060419 0.151931,0.443953 0.303684,0.887906 0.455525,1.331857 z m 19.25334,-1.153987 c 0.0089,0.06144 -0.09285,-0.09347 0,0 z m 81.850638,7.448856 c 0.72954,3.147487 1.225,6.34482 1.5965,9.552929 -0.86032,-0.906931 -1.90722,-1.704005 -2.42203,-2.877255 -0.36004,-0.991816 -0.11995,-2.057854 0.02,-3.067442 0.20524,-1.211773 0.50604,-2.404297 0.77038,-3.603894 l 0.0222,-0.01732 z m -47.7603,3.804687 c 3.66606,0.04143 7.34458,0.05362 10.98812,0.508692 2.17956,0.30409 4.3529,1.007358 6.12542,2.344278 2.03119,1.496275 3.78887,3.343962 5.92434,4.702388 0.2713,0.09642 0.0382,0.419973 -0.15792,0.451401 -0.77156,0.177963 -1.57151,0.137715 -2.35531,0.06961 -0.89901,-0.07079 -1.80124,-0.0839 -2.70136,-0.141025 -5.87041,-0.295907 -11.74633,-0.512861 -17.62486,-0.520622 -4.5201,-0.02677 -9.04045,-0.02021 -13.56021,-0.08927 -3.00696,-0.04123 -6.01419,-0.01022 -9.02066,0.05062 -2.01517,0.02792 -4.03069,0.08274 -6.04528,0.111704 -0.21102,-0.0293 -0.43449,0.08911 -0.63451,-0.02154 -0.0773,-0.296663 0.23436,-0.494526 0.30801,-0.756686 1.10552,-1.922091 2.4581,-3.683751 3.68754,-5.525168 1.17777,-0.496575 2.48053,-0.407489 3.72379,-0.571006 4.79028,-0.507779 9.6129,-0.518398 14.42405,-0.592907 2.30626,-0.0171 4.61252,-0.04029 6.91884,-0.02044 z m -3.59211,2.099734 c -1.14226,0.114037 -2.10784,0.80587 -2.99077,1.485358 -1.04139,0.792749 -2.15341,1.604769 -3.47672,1.819713 -1.71726,0.352695 -3.51757,-0.09049 -5.02513,-0.938651 -1.01058,-0.544261 -1.96061,-1.245498 -3.07855,-1.555512 -0.63855,-0.06772 -1.16287,0.39633 -1.58865,0.811287 -0.37854,0.367515 -0.74362,0.876344 -1.31918,0.902695 -0.71103,0.0341 -1.29109,-0.468007 -1.76568,-0.937072 -0.62376,-0.604142 -1.24212,-1.284725 -2.08671,-1.570465 -0.20569,0.12994 0.0706,0.409817 0.12883,0.572367 0.7784,1.541723 2.28773,2.705718 3.99246,3.015405 0.72045,0.03647 1.30721,-0.492795 1.71238,-1.03232 0.1577,-0.213502 0.2916,-0.443668 0.41772,-0.676968 0.66636,-0.231741 1.3566,0.121256 1.87021,0.531482 1.68203,1.166791 3.69893,1.943185 5.7667,1.896513 1.58774,-0.05022 3.05669,-0.769701 4.37789,-1.598394 0.90821,-0.559467 1.78478,-1.199881 2.78595,-1.582968 0.83586,-0.155351 1.64303,0.301471 2.2408,0.84674 0.50814,0.460449 0.87216,1.13077 1.54973,1.367724 0.88333,0.265157 1.83932,-0.263684 2.28927,-1.026376 0.31108,-0.550926 1.00514,-0.786123 1.60485,-0.642959 0.59555,0.130407 1.12324,0.45732 1.65577,0.740744 1.15521,0.645103 2.27894,1.420966 3.59612,1.692995 0.63022,0.155329 1.36639,0.0994 1.85859,-0.365542 0.36626,-0.300018 0.59009,-0.726428 0.80228,-1.138888 0.38065,-0.498046 1.07426,-0.547944 1.65118,-0.494073 1.30351,0.09111 2.47091,0.787183 3.46306,1.59405 0.41306,0.332402 0.78975,0.708594 1.12884,1.115977 0.28021,0.03734 0.19569,-0.351177 0.11462,-0.503739 -0.25513,-0.663015 -0.91328,-1.01365 -1.41984,-1.460806 -1.14661,-0.879638 -2.46741,-1.590831 -3.90415,-1.831463 -0.91272,-0.02088 -1.7311,0.589657 -2.18307,1.34921 -0.27808,0.363538 -0.53307,0.751417 -0.87634,1.058543 -0.71469,0.0845 -1.33028,-0.366528 -1.94606,-0.653897 -1.46667,-0.782258 -2.84793,-1.807858 -4.50066,-2.165995 -0.58045,-0.103797 -1.21809,0.137426 -1.54181,0.639524 -0.34788,0.398758 -0.70916,0.863681 -1.25205,0.987338 -0.61614,0.02177 -1.04454,-0.493868 -1.45791,-0.874768 -0.5722,-0.540242 -1.13573,-1.202637 -1.9506,-1.348561 -0.2119,-0.03667 -0.42907,-0.04298 -0.64346,-0.02825 z m -46.779836,1.574801 c 2.235357,0.932925 4.417027,2.003516 6.71611,2.778327 2.350904,0.804555 4.777974,1.375772 7.2257,1.794121 3.012425,0.512537 6.071206,0.657466 9.121036,0.742538 3.24845,0.0773 6.49796,0.0456 9.74679,0.01222 2.10591,-0.0191 4.21146,0.02088 6.31678,0.06604 3.89069,0.08039 7.78241,0.03343 11.67358,0.04896 4.09034,-0.0029 8.18091,0.03114 12.26973,0.14751 4.58751,0.105241 9.17395,0.265646 13.76223,0.330063 4.09122,-0.03836 8.18877,-0.520356 12.14723,-1.569097 2.17556,-0.588547 4.28342,-1.401755 6.35054,-2.294394 0.91619,-0.308166 1.9156,0.11126 2.58473,0.749218 1.22349,1.087365 1.70025,2.985938 1.01025,4.491628 -0.4836,1.101004 -1.51932,1.872347 -2.63884,2.246867 -1.40324,0.5402 -2.88532,0.842942 -4.36538,1.083803 -2.68284,0.40195 -5.39538,0.535862 -8.09843,0.732137 -4.09427,0.272493 -8.19884,0.374709 -12.30174,0.347215 -7.39507,-0.0011 -14.78743,-0.283566 -22.18276,-0.242223 -4.86829,0.01977 -9.73666,0.03045 -14.60484,-0.01399 -5.35391,-0.0402 -10.70813,0.08876 -16.06178,-0.0096 -3.242538,-0.04573 -6.488322,-0.215168 -9.70161,-0.667968 -1.851932,-0.253351 -3.700355,-0.559793 -5.513393,-1.019061 -0.621183,-0.173832 -1.254272,-0.333335 -1.839205,-0.609757 -0.954098,-0.462929 -1.60329,-1.366967 -2.057682,-2.297747 -0.55106,-1.203035 -0.942303,-2.495729 -1.03515,-3.820246 -0.06131,-0.833091 0.06775,-1.719743 0.560166,-2.414189 0.210571,-0.275254 0.473251,-0.580537 0.83784,-0.625434 l 0.04198,0.0069 z m -3.249383,4.871909 c 1.127774,1.582772 2.07543,3.317864 3.490362,4.674716 0.677979,0.682273 1.490719,1.237215 2.397838,1.566091 1.043856,0.400293 2.157814,0.559898 3.24956,0.774271 2.17885,0.374438 4.377734,0.624386 6.578218,0.823495 0.371031,0.05413 0.498906,0.478383 0.553148,0.796093 0.136604,0.91423 -0.530136,1.82501 -1.405559,2.06483 -0.693616,0.23807 -1.421817,0.0316 -2.12614,-0.0282 -2.903518,-0.33767 -5.803083,-0.73585 -8.666353,-1.33069 -1.344963,-0.27074 -2.679954,-0.59115 -4.001661,-0.95896 -0.52827,-0.29672 -0.681089,-0.93637 -0.785242,-1.488032 -0.119945,-1.206746 0.178808,-2.398864 0.256528,-3.598481 0.113503,-1.086384 0.253795,-2.169684 0.402882,-3.251688 0.0044,-0.01932 0.02754,-0.06415 0.05642,-0.04338 z m 103.867479,3.735271 c -0.10285,1.759046 -0.1395,3.543536 -0.59598,5.255765 -0.0829,0.27039 -0.17036,0.53974 -0.28036,0.8005 -0.4951,0.2679 -1.06236,0.3507 -1.59969,0.49841 -2.6447,0.62248 -5.38347,0.53148 -8.07778,0.41988 -1.44114,-0.0577 -2.90316,-0.10684 -4.30001,-0.49796 -0.52909,-0.15242 -1.04461,-0.36277 -1.51022,-0.65894 -0.24373,-0.29682 -0.0333,-0.74095 0.27259,-0.90182 0.52218,-0.36774 1.19212,-0.22529 1.7884,-0.29892 2.38658,-0.17032 4.7845,-0.329426 7.13332,-0.807134 1.72677,-0.39233 3.3915,-1.098796 4.81987,-2.152959 0.77924,-0.522511 1.5243,-1.093328 2.28044,-1.648143 0.0249,0.0073 0.0442,-0.02557 0.0693,-0.0087 z" />
  <path
     style="opacity:1;vector-effect:none;fill:none;fill-opacity:1;stroke:#0099dd;stroke-width:1.82302845;stroke-linecap:round;stroke-linejoin:round;stroke-miterlimit:4;stroke-dasharray:none;stroke-dashoffset:0;stroke-opacity:1"
     d="m 38.768444,0.91476141 c -1.812106,0.11211399 -3.63354,0.21028199 -5.416348,0.53563599 -1.313134,0.258591 -2.484599,0.930855 -3.427013,1.765842 -1.001072,0.884009 -1.7375,1.979315 -2.248524,3.141535 -0.661338,1.494087 -0.991576,3.090784 -1.11175,4.6879346 -0.127053,1.740309 0.08421,4.654359 0.154929,6.392638 0.103087,2.008596 0.06548,4.020474 0.15493,6.029344 0.03241,0.81879 0.112992,1.647303 0.423201,2.425068 0.273102,0.701426 0.794529,1.295184 1.310282,1.869055 0.734036,0.74573 1.577435,1.429458 2.58402,1.874082 1.165312,0.50729 2.476158,0.664037 3.759616,0.71926 1.947622,0.05284 3.896287,0.07732 5.844287,0.119679 4.412029,0.08196 6.472904,0.180184 10.885066,0.255881 7.343735,0.0984 13.512347,0.182672 20.856193,0.275048 8.194014,0.100887 16.388027,0.201774 24.582063,0.302666 2.249728,1.276699 4.375114,2.714185 6.490094,4.15757 0.19125,0.103264 0.35784,0.269717 0.59436,0.284348 0.25895,-0.07621 0.27112,-0.389465 0.14749,-0.568689 -0.68872,-1.902218 -1.41177,-3.801522 -1.86856,-5.760781 -0.22101,-0.901397 -0.31588,-1.821834 -0.36823,-2.74175 -0.10662,-2.061643 -0.13661,-4.12568 -0.20347,-6.188518 -0.1055,-3.584788 -0.19391,-8.345481 -0.33616,-11.9293066 -0.0609,-1.035932 -0.0831,-2.113111 -0.58085,-3.073003 -0.36241,-0.723603 -1.08115,-1.250304 -1.831408,-1.649841 -1.822678,-0.950755 -3.88738,-1.464864 -5.957523,-1.789833 -1.999265,-0.311133 -4.025095,-0.479173 -6.053058,-0.545002 -2.740615,-0.102858 -5.484318,-0.09809 -8.226776,-0.120514 -8.410426,-0.04832 -15.645639,-0.06762 -24.056132,-0.104524 -2.563185,-0.01739 -5.126592,-0.02612 -7.689666,-0.0489 -3.587561,-0.09521 -4.819814,-0.34959799 -8.410974,-0.31493499 z"
     id="rect500" />
  <text
     xml:space="preserve"
     style="font-style:normal;font-weight:normal;font-size:4.93888903px;line-height:1.25;font-family:sans-serif;letter-spacing:0px;word-spacing:0px;fill:#000000;fill-opacity:1;stroke:none;stroke-width:0.26458332"
     x="7.9252539"
     y="74.08477"
     id="text5014"><tspan
       id="tspan5012"
       x="7.9252539"
       y="78.454529"
       style="font-size:4.93888903px;stroke-width:0.26458332" /></text>
  <g
     style="stroke-width:0.95909822"
     transform="matrix(1.0426461,0,0,1.0426461,-96.656816,56.893775)"
     id="g1323" />
  <g
     id="g5205"
     transform="matrix(2.2731228,0,0,2.2731228,9.1141254,-0.80361459)"
     style="fill:#03628f;fill-opacity:1;stroke-width:0.97716135">
    <g
       id="text902"
       style="font-style:normal;font-variant:normal;font-weight:normal;font-stretch:normal;font-size:2.06832504px;line-height:1.39999998em;font-family:'DejaVu Sans Mono';-inkscape-font-specification:'DejaVu Sans Mono';letter-spacing:0px;word-spacing:0px;fill:#03628f;fill-opacity:1;stroke:none;stroke-width:0.2526359"
       aria-label="No premium tires? ...
Your boss will love to 
know where you really 
went last weekend">
      <path
         id="path924"
         style="font-style:normal;font-variant:normal;font-weight:normal;font-stretch:normal;font-size:2.06832504px;line-height:1.39999998em;font-family:'DejaVu Sans Mono';-inkscape-font-specification:'DejaVu Sans Mono';fill:#03628f;fill-opacity:1;stroke-width:0.2526359"
         d="m 11.087684,2.2855117 h 0.258541 l 0.509002,1.241197 v -1.241197 h 0.196935 v 1.5078171 h -0.258541 l -0.509002,-1.241197 v 1.241197 h -0.196935 z" />
      <path
         id="path926"
         style="font-style:normal;font-variant:normal;font-weight:normal;font-stretch:normal;font-size:2.06832504px;line-height:1.39999998em;font-family:'DejaVu Sans Mono';-inkscape-font-specification:'DejaVu Sans Mono';fill:#03628f;fill-opacity:1;stroke-width:0.2526359"
         d="m 12.814655,2.7924937 q -0.14139,0 -0.214104,0.1100818 -0.07271,0.1100817 -0.07271,0.3262056 0,0.2151138 0.07271,0.3262055 0.07271,0.1100818 0.214104,0.1100818 0.142399,0 0.215114,-0.1100818 0.07271,-0.1110917 0.07271,-0.3262055 0,-0.2161239 -0.07271,-0.3262056 -0.07272,-0.1100818 -0.215114,-0.1100818 z m 0,-0.1575482 q 0.235312,0 0.359533,0.1524986 0.125231,0.1524986 0.125231,0.441337 0,0.2898482 -0.124221,0.4423468 -0.124221,0.1514887 -0.360543,0.1514887 -0.235312,0 -0.359533,-0.1514887 -0.124221,-0.1524986 -0.124221,-0.4423468 0,-0.2888384 0.124221,-0.441337 0.124221,-0.1524986 0.359533,-0.1524986 z" />
      <path
         id="path928"
         style="font-style:normal;font-variant:normal;font-weight:normal;font-stretch:normal;font-size:2.06832504px;line-height:1.39999998em;font-family:'DejaVu Sans Mono';-inkscape-font-specification:'DejaVu Sans Mono';fill:#03628f;fill-opacity:1;stroke-width:0.2526359"
         d="M 15.061736,3.6509294 V 4.2235565 H 14.8749 v -1.561343 h 0.186836 v 0.1444192 q 0.04646,-0.083824 0.123211,-0.1272505 0.07776,-0.044437 0.178757,-0.044437 0.205015,0 0.321156,0.1585582 0.117151,0.1585581 0.117151,0.4393171 0,0.2757093 -0.117151,0.4332575 -0.117151,0.1565383 -0.321156,0.1565383 -0.103012,0 -0.180777,-0.043427 -0.07675,-0.044437 -0.121191,-0.1282599 z m 0.54536,-0.4221483 q 0,-0.2161239 -0.06868,-0.3262056 -0.06766,-0.1100818 -0.201985,-0.1100818 -0.13533,0 -0.205015,0.1110917 -0.06968,0.1100818 -0.06968,0.3251957 0,0.2141039 0.06968,0.3251956 0.06968,0.1110917 0.205015,0.1110917 0.13432,0 0.201985,-0.1100818 0.06868,-0.1100817 0.06868,-0.3262055 z" />
      <path
         id="path930"
         style="font-style:normal;font-variant:normal;font-weight:normal;font-stretch:normal;font-size:2.06832504px;line-height:1.39999998em;font-family:'DejaVu Sans Mono';-inkscape-font-specification:'DejaVu Sans Mono';fill:#03628f;fill-opacity:1;stroke-width:0.2526359"
         d="m 17.094714,2.895506 q -0.05958,-0.046457 -0.121191,-0.067665 -0.06161,-0.021208 -0.135329,-0.021208 -0.173707,0 -0.265611,0.1090718 -0.0919,0.1090718 -0.0919,0.3150964 V 3.7933288 H 16.293844 V 2.6622135 h 0.186836 v 0.2211734 q 0.04646,-0.120181 0.1424,-0.1838062 0.09695,-0.064635 0.229253,-0.064635 0.06867,0 0.12826,0.017169 0.05959,0.017169 0.114121,0.053526 z" />
      <path
         id="path932"
         style="font-style:normal;font-variant:normal;font-weight:normal;font-stretch:normal;font-size:2.06832504px;line-height:1.39999998em;font-family:'DejaVu Sans Mono';-inkscape-font-specification:'DejaVu Sans Mono';fill:#03628f;fill-opacity:1;stroke-width:0.2526359"
         d="m 18.296524,3.1813146 v 0.090893 h -0.804909 v 0.00606 q 0,0.1848161 0.09594,0.2858085 0.09695,0.1009925 0.272679,0.1009925 0.08887,0 0.185826,-0.028278 0.09695,-0.028278 0.207035,-0.085844 v 0.1848162 q -0.106042,0.043427 -0.205015,0.064635 -0.09796,0.022218 -0.189866,0.022218 -0.26359,0 -0.412049,-0.1575482 -0.148459,-0.1585581 -0.148459,-0.4362873 0,-0.2706598 0.145429,-0.4322477 0.14543,-0.1615879 0.387811,-0.1615879 0.216124,0 0.340345,0.1464391 0.12523,0.146439 0.12523,0.39993 z m -0.185826,-0.054536 q -0.004,-0.1636077 -0.07776,-0.2484414 -0.07271,-0.085844 -0.210064,-0.085844 -0.13432,0 -0.221173,0.088873 -0.08685,0.088873 -0.103013,0.2464215 z" />
      <path
         id="path934"
         style="font-style:normal;font-variant:normal;font-weight:normal;font-stretch:normal;font-size:2.06832504px;line-height:1.39999998em;font-family:'DejaVu Sans Mono';-inkscape-font-specification:'DejaVu Sans Mono';fill:#03628f;fill-opacity:1;stroke-width:0.2526359"
         d="m 19.101434,2.7773449 q 0.03434,-0.072715 0.08685,-0.107052 0.05353,-0.035347 0.128261,-0.035347 0.13634,0 0.191885,0.1060421 0.05656,0.1050321 0.05656,0.3969003 V 3.7933288 H 19.395322 V 3.1459673 q 0,-0.2393521 -0.02727,-0.2969178 -0.02626,-0.058576 -0.09695,-0.058576 -0.08079,0 -0.111092,0.062615 -0.02929,0.061605 -0.02929,0.2928781 V 3.7933288 H 18.961054 V 3.1459673 q 0,-0.2423819 -0.02929,-0.2989376 -0.02828,-0.056556 -0.103013,-0.056556 -0.07372,0 -0.103012,0.062615 -0.02828,0.061605 -0.02828,0.2928781 v 0.647362 H 18.528807 V 2.6622135 h 0.168657 v 0.096953 q 0.03333,-0.060595 0.08281,-0.091903 0.0505,-0.032318 0.114121,-0.032318 0.07675,0 0.127251,0.035347 0.05151,0.035347 0.07978,0.107052 z" />
      <path
         id="path936"
         style="font-style:normal;font-variant:normal;font-weight:normal;font-stretch:normal;font-size:2.06832504px;line-height:1.39999998em;font-family:'DejaVu Sans Mono';-inkscape-font-specification:'DejaVu Sans Mono';fill:#03628f;fill-opacity:1;stroke-width:0.2526359"
         d="m 19.922503,2.6622135 h 0.475674 V 3.6489096 H 20.7668 V 3.7933288 H 19.843729 V 3.6489096 h 0.368622 V 2.8066327 h -0.289848 z m 0.289848,-0.440327 h 0.185826 v 0.2353124 h -0.185826 z" />
      <path
         id="path938"
         style="font-style:normal;font-variant:normal;font-weight:normal;font-stretch:normal;font-size:2.06832504px;line-height:1.39999998em;font-family:'DejaVu Sans Mono';-inkscape-font-specification:'DejaVu Sans Mono';fill:#03628f;fill-opacity:1;stroke-width:0.2526359"
         d="M 21.106134,3.3651208 V 2.6642334 h 0.185826 v 0.7008874 q 0,0.1524986 0.05353,0.2242032 0.05454,0.071705 0.167648,0.071705 0.13129,0 0.200974,-0.091903 0.06968,-0.092913 0.06968,-0.2656101 V 2.6642334 h 0.186836 V 3.7933288 H 21.783793 V 3.6236615 q -0.04949,0.097963 -0.13533,0.1484589 -0.08483,0.050496 -0.198955,0.050496 -0.173707,0 -0.25854,-0.1131116 -0.08483,-0.1141214 -0.08483,-0.3443842 z" />
      <path
         id="path940"
         style="font-style:normal;font-variant:normal;font-weight:normal;font-stretch:normal;font-size:2.06832504px;line-height:1.39999998em;font-family:'DejaVu Sans Mono';-inkscape-font-specification:'DejaVu Sans Mono';fill:#03628f;fill-opacity:1;stroke-width:0.2526359"
         d="m 22.837144,2.7773449 q 0.03434,-0.072715 0.08685,-0.107052 0.05353,-0.035347 0.12826,-0.035347 0.13634,0 0.191886,0.1060421 0.05656,0.1050321 0.05656,0.3969003 V 3.7933288 H 23.131032 V 3.1459673 q 0,-0.2393521 -0.02727,-0.2969178 -0.02626,-0.058576 -0.09695,-0.058576 -0.08079,0 -0.111091,0.062615 -0.02929,0.061605 -0.02929,0.2928781 V 3.7933288 H 22.696765 V 3.1459673 q 0,-0.2423819 -0.02929,-0.2989376 -0.02828,-0.056556 -0.103013,-0.056556 -0.07372,0 -0.103012,0.062615 -0.02828,0.061605 -0.02828,0.2928781 v 0.647362 H 22.264517 V 2.6622135 h 0.168657 v 0.096953 q 0.03333,-0.060595 0.08281,-0.091903 0.0505,-0.032318 0.114122,-0.032318 0.07675,0 0.12725,0.035347 0.05151,0.035347 0.07978,0.107052 z" />
      <path
         id="path942"
         style="font-style:normal;font-variant:normal;font-weight:normal;font-stretch:normal;font-size:2.06832504px;line-height:1.39999998em;font-family:'DejaVu Sans Mono';-inkscape-font-specification:'DejaVu Sans Mono';fill:#03628f;fill-opacity:1;stroke-width:0.2526359"
         d="m 25.265002,2.3410576 v 0.3211559 h 0.422149 v 0.1444192 h -0.422149 v 0.614034 q 0,0.1252306 0.04747,0.1747169 0.04747,0.049486 0.165627,0.049486 h 0.209055 v 0.1484589 h -0.227233 q -0.209054,0 -0.294898,-0.083824 -0.08584,-0.083824 -0.08584,-0.2888383 V 2.8066327 H 24.777209 V 2.6622135 h 0.301967 V 2.3410576 Z" />
      <path
         id="path944"
         style="font-style:normal;font-variant:normal;font-weight:normal;font-stretch:normal;font-size:2.06832504px;line-height:1.39999998em;font-family:'DejaVu Sans Mono';-inkscape-font-specification:'DejaVu Sans Mono';fill:#03628f;fill-opacity:1;stroke-width:0.2526359"
         d="m 26.148686,2.6622135 h 0.475674 v 0.9866961 h 0.368623 V 3.7933288 H 26.069912 V 3.6489096 h 0.368622 V 2.8066327 h -0.289848 z m 0.289848,-0.440327 h 0.185826 v 0.2353124 h -0.185826 z" />
      <path
         id="path946"
         style="font-style:normal;font-variant:normal;font-weight:normal;font-stretch:normal;font-size:2.06832504px;line-height:1.39999998em;font-family:'DejaVu Sans Mono';-inkscape-font-specification:'DejaVu Sans Mono';fill:#03628f;fill-opacity:1;stroke-width:0.2526359"
         d="m 28.301845,2.895506 q -0.05958,-0.046457 -0.121191,-0.067665 -0.06161,-0.021208 -0.13533,-0.021208 -0.173707,0 -0.26561,0.1090718 -0.0919,0.1090718 -0.0919,0.3150964 V 3.7933288 H 27.500975 V 2.6622135 h 0.186836 v 0.2211734 q 0.04646,-0.120181 0.1424,-0.1838062 0.09695,-0.064635 0.229252,-0.064635 0.06867,0 0.128261,0.017169 0.05959,0.017169 0.114121,0.053526 z" />
      <path
         id="path948"
         style="font-style:normal;font-variant:normal;font-weight:normal;font-stretch:normal;font-size:2.06832504px;line-height:1.39999998em;font-family:'DejaVu Sans Mono';-inkscape-font-specification:'DejaVu Sans Mono';fill:#03628f;fill-opacity:1;stroke-width:0.2526359"
         d="m 29.503656,3.1813146 v 0.090893 h -0.80491 v 0.00606 q 0,0.1848161 0.09594,0.2858085 0.09695,0.1009925 0.27268,0.1009925 0.08887,0 0.185826,-0.028278 0.09695,-0.028278 0.207034,-0.085844 v 0.1848162 q -0.106042,0.043427 -0.205015,0.064635 -0.09796,0.022218 -0.189865,0.022218 -0.263591,0 -0.412049,-0.1575482 -0.148459,-0.1585581 -0.148459,-0.4362873 0,-0.2706598 0.145429,-0.4322477 0.145429,-0.1615879 0.387811,-0.1615879 0.216124,0 0.340344,0.1464391 0.125231,0.146439 0.125231,0.39993 z M 29.31783,3.1267787 q -0.004,-0.1636077 -0.07776,-0.2484414 -0.07271,-0.085844 -0.210065,-0.085844 -0.13432,0 -0.221173,0.088873 -0.08685,0.088873 -0.103012,0.2464215 z" />
      <path
         id="path950"
         style="font-style:normal;font-variant:normal;font-weight:normal;font-stretch:normal;font-size:2.06832504px;line-height:1.39999998em;font-family:'DejaVu Sans Mono';-inkscape-font-specification:'DejaVu Sans Mono';fill:#03628f;fill-opacity:1;stroke-width:0.2526359"
         d="m 30.608512,2.7016006 v 0.1817863 q -0.07978,-0.046457 -0.160578,-0.069685 -0.08079,-0.023228 -0.164618,-0.023228 -0.12624,0 -0.188856,0.041407 -0.06161,0.040397 -0.06161,0.1242207 0,0.075744 0.04646,0.1131115 0.04646,0.037367 0.231273,0.072715 l 0.07474,0.014139 q 0.138359,0.026258 0.209054,0.1050321 0.0717,0.078774 0.0717,0.2050147 0,0.1676474 -0.119172,0.2625803 -0.119171,0.093923 -0.331255,0.093923 -0.08382,0 -0.175727,-0.018179 -0.0919,-0.017169 -0.198955,-0.052516 v -0.191886 q 0.104023,0.053526 0.198955,0.080794 0.09493,0.026258 0.179767,0.026258 0.123211,0 0.190876,-0.049486 0.06766,-0.050496 0.06766,-0.1403795 0,-0.1292703 -0.247432,-0.1787566 l -0.0081,-0.00202 -0.06968,-0.014139 q -0.160578,-0.031308 -0.234302,-0.1050321 -0.07372,-0.074734 -0.07372,-0.2029948 0,-0.1625978 0.110082,-0.2504612 0.110082,-0.088873 0.314086,-0.088873 0.09089,0 0.174717,0.017169 0.08382,0.016159 0.164618,0.049486 z" />
      <path
         id="path952"
         style="font-style:normal;font-variant:normal;font-weight:normal;font-stretch:normal;font-size:2.06832504px;line-height:1.39999998em;font-family:'DejaVu Sans Mono';-inkscape-font-specification:'DejaVu Sans Mono';fill:#03628f;fill-opacity:1;stroke-width:0.2526359"
         d="M 31.561881,3.3883491 H 31.369995 V 3.2328208 q 0,-0.098973 0.0303,-0.1676475 0.03131,-0.069685 0.116141,-0.1524986 l 0.09089,-0.089883 q 0.06262,-0.059586 0.08584,-0.1040222 0.02424,-0.044437 0.02424,-0.093923 0,-0.089883 -0.06666,-0.1454291 -0.06564,-0.055546 -0.175726,-0.055546 -0.07877,0 -0.168658,0.035347 -0.08988,0.034337 -0.188856,0.1030123 V 2.3723652 q 0.09493,-0.057566 0.190876,-0.085843 0.09695,-0.028278 0.201985,-0.028278 0.187846,0 0.298938,0.096953 0.112101,0.096953 0.112101,0.2595506 0,0.076754 -0.03434,0.1434092 -0.03333,0.065645 -0.128261,0.1585581 l -0.08887,0.086854 q -0.06968,0.066655 -0.08887,0.1090719 -0.01919,0.042417 -0.01919,0.1040222 v 0.047466 z M 31.362926,3.536808 h 0.205015 v 0.2565208 h -0.205015 z" />
      <path
         id="path954"
         style="font-style:normal;font-variant:normal;font-weight:normal;font-stretch:normal;font-size:2.06832504px;line-height:1.39999998em;font-family:'DejaVu Sans Mono';-inkscape-font-specification:'DejaVu Sans Mono';fill:#03628f;fill-opacity:1;stroke-width:0.2526359"
         d="m 33.855419,3.4853018 h 0.254501 v 0.308027 h -0.254501 z" />
      <path
         id="path956"
         style="font-style:normal;font-variant:normal;font-weight:normal;font-stretch:normal;font-size:2.06832504px;line-height:1.39999998em;font-family:'DejaVu Sans Mono';-inkscape-font-specification:'DejaVu Sans Mono';fill:#03628f;fill-opacity:1;stroke-width:0.2526359"
         d="m 35.100656,3.4853018 h 0.254501 v 0.308027 h -0.254501 z" />
      <path
         id="path958"
         style="font-style:normal;font-variant:normal;font-weight:normal;font-stretch:normal;font-size:2.06832504px;line-height:1.39999998em;font-family:'DejaVu Sans Mono';-inkscape-font-specification:'DejaVu Sans Mono';fill:#03628f;fill-opacity:1;stroke-width:0.2526359"
         d="m 36.345893,3.4853018 h 0.254501 v 0.308027 h -0.254501 z" />
      <path
         id="path960"
         style="font-style:normal;font-variant:normal;font-weight:normal;font-stretch:normal;font-size:2.06832504px;line-height:1.39999998em;font-family:'DejaVu Sans Mono';-inkscape-font-specification:'DejaVu Sans Mono';fill:#03628f;fill-opacity:1;stroke-width:0.2526359"
         d="m 10.984672,5.1811667 h 0.217134 l 0.367612,0.6655402 0.366603,-0.6655402 h 0.219153 L 11.67142,6.0123345 V 6.6889838 H 11.466406 V 6.0123345 Z" />
      <path
         id="path962"
         style="font-style:normal;font-variant:normal;font-weight:normal;font-stretch:normal;font-size:2.06832504px;line-height:1.39999998em;font-family:'DejaVu Sans Mono';-inkscape-font-specification:'DejaVu Sans Mono';fill:#03628f;fill-opacity:1;stroke-width:0.2526359"
         d="m 12.814655,5.6881488 q -0.14139,0 -0.214104,0.1100817 -0.07271,0.1100818 -0.07271,0.3262056 0,0.2151139 0.07271,0.3262055 0.07271,0.1100818 0.214104,0.1100818 0.142399,0 0.215114,-0.1100818 0.07271,-0.1110916 0.07271,-0.3262055 0,-0.2161238 -0.07271,-0.3262056 -0.07272,-0.1100817 -0.215114,-0.1100817 z m 0,-0.1575482 q 0.235312,0 0.359533,0.1524985 0.125231,0.1524986 0.125231,0.441337 0,0.2898483 -0.124221,0.4423468 -0.124221,0.1514887 -0.360543,0.1514887 -0.235312,0 -0.359533,-0.1514887 -0.124221,-0.1524985 -0.124221,-0.4423468 0,-0.2888384 0.124221,-0.441337 0.124221,-0.1524985 0.359533,-0.1524985 z" />
      <path
         id="path964"
         style="font-style:normal;font-variant:normal;font-weight:normal;font-stretch:normal;font-size:2.06832504px;line-height:1.39999998em;font-family:'DejaVu Sans Mono';-inkscape-font-specification:'DejaVu Sans Mono';fill:#03628f;fill-opacity:1;stroke-width:0.2526359"
         d="M 13.634713,6.2607759 V 5.5598884 h 0.185827 v 0.7008875 q 0,0.1524985 0.05353,0.2242032 0.05454,0.071705 0.167647,0.071705 0.13129,0 0.200975,-0.091903 0.06968,-0.092913 0.06968,-0.2656101 V 5.5598884 h 0.186836 V 6.6889838 H 14.312373 V 6.5193165 q -0.04949,0.097963 -0.13533,0.1484589 -0.08483,0.050496 -0.198955,0.050496 -0.173707,0 -0.258541,-0.1131115 -0.08483,-0.1141215 -0.08483,-0.3443842 z" />
      <path
         id="path966"
         style="font-style:normal;font-variant:normal;font-weight:normal;font-stretch:normal;font-size:2.06832504px;line-height:1.39999998em;font-family:'DejaVu Sans Mono';-inkscape-font-specification:'DejaVu Sans Mono';fill:#03628f;fill-opacity:1;stroke-width:0.2526359"
         d="m 15.849477,5.791161 q -0.05959,-0.046456 -0.12119,-0.067665 -0.06161,-0.021208 -0.13533,-0.021208 -0.173707,0 -0.26561,0.1090718 -0.0919,0.1090719 -0.0919,0.3150964 v 0.5625276 h -0.18684 V 5.5578685 h 0.186836 v 0.2211734 q 0.04646,-0.120181 0.1424,-0.1838062 0.09695,-0.064635 0.229253,-0.064635 0.06867,0 0.12826,0.017169 0.05959,0.017169 0.114121,0.053526 z" />
      <path
         id="path968"
         style="font-style:normal;font-variant:normal;font-weight:normal;font-stretch:normal;font-size:2.06832504px;line-height:1.39999998em;font-family:'DejaVu Sans Mono';-inkscape-font-specification:'DejaVu Sans Mono';fill:#03628f;fill-opacity:1;stroke-width:0.2526359"
         d="m 18.100599,6.1244361 q 0,-0.2161238 -0.06867,-0.3262056 -0.06867,-0.1100817 -0.202994,-0.1100817 -0.13533,0 -0.205015,0.1110916 -0.06968,0.1100818 -0.06968,0.3251957 0,0.2141039 0.06968,0.3251956 0.06968,0.1110917 0.205015,0.1110917 0.134319,0 0.202994,-0.1100818 0.06867,-0.1100817 0.06867,-0.3262055 z M 17.55423,5.7022877 q 0.04444,-0.082814 0.122201,-0.1272505 0.07877,-0.044437 0.181786,-0.044437 0.204005,0 0.321156,0.1575482 0.117151,0.1565382 0.117151,0.4322476 0,0.279749 -0.118161,0.4393171 -0.117151,0.1585581 -0.322166,0.1585581 -0.100992,0 -0.178756,-0.043427 -0.07675,-0.044437 -0.123211,-0.1282604 v 0.1424 H 17.368404 V 5.1175415 h 0.185826 z" />
      <path
         id="path970"
         style="font-style:normal;font-variant:normal;font-weight:normal;font-stretch:normal;font-size:2.06832504px;line-height:1.39999998em;font-family:'DejaVu Sans Mono';-inkscape-font-specification:'DejaVu Sans Mono';fill:#03628f;fill-opacity:1;stroke-width:0.2526359"
         d="m 19.040838,5.6881488 q -0.141389,0 -0.214104,0.1100817 -0.07271,0.1100818 -0.07271,0.3262056 0,0.2151139 0.07271,0.3262055 0.07272,0.1100818 0.214104,0.1100818 0.1424,0 0.215114,-0.1100818 0.07271,-0.1110916 0.07271,-0.3262055 0,-0.2161238 -0.07271,-0.3262056 -0.07271,-0.1100817 -0.215114,-0.1100817 z m 0,-0.1575482 q 0.235313,0 0.359533,0.1524985 0.125231,0.1524986 0.125231,0.441337 0,0.2898483 -0.124221,0.4423468 -0.12422,0.1514887 -0.360543,0.1514887 -0.235312,0 -0.359533,-0.1514887 -0.12422,-0.1524985 -0.12422,-0.4423468 0,-0.2888384 0.12422,-0.441337 0.124221,-0.1524985 0.359533,-0.1524985 z" />
      <path
         id="path972"
         style="font-style:normal;font-variant:normal;font-weight:normal;font-stretch:normal;font-size:2.06832504px;line-height:1.39999998em;font-family:'DejaVu Sans Mono';-inkscape-font-specification:'DejaVu Sans Mono';fill:#03628f;fill-opacity:1;stroke-width:0.2526359"
         d="m 20.646619,5.5972556 v 0.1817863 q -0.07978,-0.046457 -0.160578,-0.069685 -0.08079,-0.023228 -0.164618,-0.023228 -0.12624,0 -0.188856,0.041407 -0.06161,0.040397 -0.06161,0.1242207 0,0.075744 0.04646,0.1131115 0.04646,0.037367 0.231273,0.072715 l 0.07473,0.014139 q 0.13836,0.026258 0.209055,0.1050321 0.0717,0.078774 0.0717,0.2050147 0,0.1676474 -0.119171,0.2625803 -0.119171,0.093923 -0.331255,0.093923 -0.08382,0 -0.175727,-0.018179 -0.0919,-0.017169 -0.198955,-0.052516 V 6.4556913 q 0.104022,0.053526 0.198955,0.080794 0.09493,0.026258 0.179767,0.026258 0.123211,0 0.190876,-0.049486 0.06766,-0.050496 0.06766,-0.1403794 0,-0.1292704 -0.247432,-0.1787567 l -0.0081,-0.00202 -0.06968,-0.014139 Q 20.030535,6.1466542 19.95681,6.07293 19.88309,5.998196 19.88309,5.8699352 q 0,-0.1625978 0.110082,-0.2504612 0.110081,-0.088873 0.314086,-0.088873 0.09089,0 0.174717,0.017169 0.08382,0.016159 0.164618,0.049486 z" />
      <path
         id="path974"
         style="font-style:normal;font-variant:normal;font-weight:normal;font-stretch:normal;font-size:2.06832504px;line-height:1.39999998em;font-family:'DejaVu Sans Mono';-inkscape-font-specification:'DejaVu Sans Mono';fill:#03628f;fill-opacity:1;stroke-width:0.2526359"
         d="m 21.891855,5.5972556 v 0.1817863 q -0.07978,-0.046457 -0.160578,-0.069685 -0.08079,-0.023228 -0.164617,-0.023228 -0.126241,0 -0.188856,0.041407 -0.06161,0.040397 -0.06161,0.1242207 0,0.075744 0.04646,0.1131115 0.04646,0.037367 0.231272,0.072715 l 0.07474,0.014139 q 0.138359,0.026258 0.209054,0.1050321 0.07171,0.078774 0.07171,0.2050147 0,0.1676474 -0.119171,0.2625803 -0.119171,0.093923 -0.331255,0.093923 -0.08382,0 -0.175727,-0.018179 -0.0919,-0.017169 -0.198955,-0.052516 V 6.4556913 q 0.104022,0.053526 0.198955,0.080794 0.09493,0.026258 0.179766,0.026258 0.123211,0 0.190876,-0.049486 0.06767,-0.050496 0.06767,-0.1403794 0,-0.1292704 -0.247432,-0.1787567 l -0.0081,-0.00202 -0.06968,-0.014139 Q 21.275799,6.1466542 21.202075,6.07293 q -0.07372,-0.074734 -0.07372,-0.2029948 0,-0.1625978 0.110082,-0.2504612 0.110082,-0.088873 0.314087,-0.088873 0.09089,0 0.174716,0.017169 0.08382,0.016159 0.164618,0.049486 z" />
      <path
         id="path976"
         style="font-style:normal;font-variant:normal;font-weight:normal;font-stretch:normal;font-size:2.06832504px;line-height:1.39999998em;font-family:'DejaVu Sans Mono';-inkscape-font-specification:'DejaVu Sans Mono';fill:#03628f;fill-opacity:1;stroke-width:0.2526359"
         d="m 23.399673,5.5578685 h 0.183806 L 23.780414,6.47185 23.942002,5.8881138 H 24.10056 L 24.264168,6.47185 24.461103,5.5578685 h 0.183806 l -0.2646,1.1311153 H 24.202562 L 24.021786,6.0688902 23.842019,6.6889838 h -0.177746 z" />
      <path
         id="path978"
         style="font-style:normal;font-variant:normal;font-weight:normal;font-stretch:normal;font-size:2.06832504px;line-height:1.39999998em;font-family:'DejaVu Sans Mono';-inkscape-font-specification:'DejaVu Sans Mono';fill:#03628f;fill-opacity:1;stroke-width:0.2526359"
         d="m 24.90345,5.5578685 h 0.475674 v 0.9866961 h 0.368622 V 6.6889838 H 24.824675 V 6.5445646 h 0.368623 V 5.7022877 H 24.90345 Z m 0.289848,-0.440327 h 0.185826 v 0.2353124 h -0.185826 z" />
      <path
         id="path980"
         style="font-style:normal;font-variant:normal;font-weight:normal;font-stretch:normal;font-size:2.06832504px;line-height:1.39999998em;font-family:'DejaVu Sans Mono';-inkscape-font-specification:'DejaVu Sans Mono';fill:#03628f;fill-opacity:1;stroke-width:0.2526359"
         d="m 26.535487,6.2789545 q 0,0.1252306 0.04545,0.1888558 0.04646,0.063625 0.136339,0.063625 h 0.217134 v 0.1575482 h -0.235312 q -0.166638,0 -0.258541,-0.107052 -0.09089,-0.107052 -0.09089,-0.3029773 V 5.2518614 H 26.051733 V 5.1064323 h 0.483754 z" />
      <path
         id="path982"
         style="font-style:normal;font-variant:normal;font-weight:normal;font-stretch:normal;font-size:2.06832504px;line-height:1.39999998em;font-family:'DejaVu Sans Mono';-inkscape-font-specification:'DejaVu Sans Mono';fill:#03628f;fill-opacity:1;stroke-width:0.2526359"
         d="m 27.780724,6.2789545 q 0,0.1252306 0.04545,0.1888558 0.04646,0.063625 0.13634,0.063625 h 0.217133 v 0.1575482 h -0.235312 q -0.166637,0 -0.258541,-0.107052 -0.09089,-0.107052 -0.09089,-0.3029773 V 5.2518614 H 27.296971 V 5.1064323 h 0.483753 z" />
      <path
         id="path984"
         style="font-style:normal;font-variant:normal;font-weight:normal;font-stretch:normal;font-size:2.06832504px;line-height:1.39999998em;font-family:'DejaVu Sans Mono';-inkscape-font-specification:'DejaVu Sans Mono';fill:#03628f;fill-opacity:1;stroke-width:0.2526359"
         d="m 30.271197,6.2789545 q 0,0.1252306 0.04545,0.1888558 0.04646,0.063625 0.136339,0.063625 h 0.217134 v 0.1575482 h -0.235312 q -0.166638,0 -0.258541,-0.107052 -0.09089,-0.107052 -0.09089,-0.3029773 V 5.2518614 H 29.787443 V 5.1064323 h 0.483754 z" />
      <path
         id="path986"
         style="font-style:normal;font-variant:normal;font-weight:normal;font-stretch:normal;font-size:2.06832504px;line-height:1.39999998em;font-family:'DejaVu Sans Mono';-inkscape-font-specification:'DejaVu Sans Mono';fill:#03628f;fill-opacity:1;stroke-width:0.2526359"
         d="m 31.493206,5.6881488 q -0.141389,0 -0.214104,0.1100817 -0.07271,0.1100818 -0.07271,0.3262056 0,0.2151139 0.07271,0.3262055 0.07271,0.1100818 0.214104,0.1100818 0.1424,0 0.215114,-0.1100818 0.07271,-0.1110916 0.07271,-0.3262055 0,-0.2161238 -0.07271,-0.3262056 -0.07271,-0.1100817 -0.215114,-0.1100817 z m 0,-0.1575482 q 0.235313,0 0.359533,0.1524985 0.125231,0.1524986 0.125231,0.441337 0,0.2898483 -0.124221,0.4423468 -0.124221,0.1514887 -0.360543,0.1514887 -0.235312,0 -0.359533,-0.1514887 -0.124221,-0.1524985 -0.124221,-0.4423468 0,-0.2888384 0.124221,-0.441337 0.124221,-0.1524985 0.359533,-0.1524985 z" />
      <path
         id="path988"
         style="font-style:normal;font-variant:normal;font-weight:normal;font-stretch:normal;font-size:2.06832504px;line-height:1.39999998em;font-family:'DejaVu Sans Mono';-inkscape-font-specification:'DejaVu Sans Mono';fill:#03628f;fill-opacity:1;stroke-width:0.2526359"
         d="m 32.217323,5.5578685 h 0.192895 l 0.328226,0.9493289 0.329235,-0.9493289 h 0.192895 l -0.401949,1.1311153 h -0.239353 z" />
      <path
         id="path990"
         style="font-style:normal;font-variant:normal;font-weight:normal;font-stretch:normal;font-size:2.06832504px;line-height:1.39999998em;font-family:'DejaVu Sans Mono';-inkscape-font-specification:'DejaVu Sans Mono';fill:#03628f;fill-opacity:1;stroke-width:0.2526359"
         d="m 34.484601,6.0769696 v 0.090893 h -0.804909 v 0.00606 q 0,0.1848161 0.09594,0.2858085 0.09695,0.1009925 0.272679,0.1009925 0.08887,0 0.185826,-0.028278 0.09695,-0.028278 0.207035,-0.085844 v 0.1848162 q -0.106042,0.043427 -0.205015,0.064635 -0.09796,0.022218 -0.189866,0.022218 -0.26359,0 -0.412049,-0.1575482 -0.148459,-0.1585581 -0.148459,-0.4362873 0,-0.2706598 0.145429,-0.4322476 0.145429,-0.1615879 0.387811,-0.1615879 0.216124,0 0.340345,0.146439 0.12523,0.146439 0.12523,0.39993 z m -0.185826,-0.054536 q -0.004,-0.1636077 -0.07776,-0.2484414 -0.07271,-0.085844 -0.210064,-0.085844 -0.13432,0 -0.221173,0.088873 -0.08685,0.088873 -0.103013,0.2464215 z" />
      <path
         id="path992"
         style="font-style:normal;font-variant:normal;font-weight:normal;font-stretch:normal;font-size:2.06832504px;line-height:1.39999998em;font-family:'DejaVu Sans Mono';-inkscape-font-specification:'DejaVu Sans Mono';fill:#03628f;fill-opacity:1;stroke-width:0.2526359"
         d="m 36.472134,5.2367126 v 0.3211559 h 0.422148 v 0.1444192 h -0.422148 v 0.614034 q 0,0.1252306 0.04747,0.1747169 0.04747,0.049486 0.165628,0.049486 h 0.209054 v 0.1484589 h -0.227233 q -0.209054,0 -0.294898,-0.083824 -0.08584,-0.083824 -0.08584,-0.2888384 V 5.7022877 H 35.98434 V 5.5578685 h 0.301968 V 5.2367126 Z" />
      <path
         id="path994"
         style="font-style:normal;font-variant:normal;font-weight:normal;font-stretch:normal;font-size:2.06832504px;line-height:1.39999998em;font-family:'DejaVu Sans Mono';-inkscape-font-specification:'DejaVu Sans Mono';fill:#03628f;fill-opacity:1;stroke-width:0.2526359"
         d="m 37.719389,5.6881488 q -0.141389,0 -0.214104,0.1100817 -0.07271,0.1100818 -0.07271,0.3262056 0,0.2151139 0.07271,0.3262055 0.07272,0.1100818 0.214104,0.1100818 0.142399,0 0.215114,-0.1100818 0.07272,-0.1110916 0.07272,-0.3262055 0,-0.2161238 -0.07272,-0.3262056 -0.07272,-0.1100817 -0.215114,-0.1100817 z m 0,-0.1575482 q 0.235312,0 0.359533,0.1524985 0.125231,0.1524986 0.125231,0.441337 0,0.2898483 -0.124221,0.4423468 -0.124221,0.1514887 -0.360543,0.1514887 -0.235312,0 -0.359533,-0.1514887 -0.124221,-0.1524985 -0.124221,-0.4423468 0,-0.2888384 0.124221,-0.441337 0.124221,-0.1524985 0.359533,-0.1524985 z" />
      <path
         id="path996"
         style="font-style:normal;font-variant:normal;font-weight:normal;font-stretch:normal;font-size:2.06832504px;line-height:1.39999998em;font-family:'DejaVu Sans Mono';-inkscape-font-specification:'DejaVu Sans Mono';fill:#03628f;fill-opacity:1;stroke-width:0.2526359"
         d="m 11.185647,8.0131965 h 0.191885 v 0.9099418 l 0.487794,-0.4696148 h 0.226223 l -0.445377,0.4261881 0.515062,0.7049272 h -0.227233 l -0.418109,-0.5837363 -0.13836,0.1302803 v 0.453456 h -0.191885 z" />
      <path
         id="path998"
         style="font-style:normal;font-variant:normal;font-weight:normal;font-stretch:normal;font-size:2.06832504px;line-height:1.39999998em;font-family:'DejaVu Sans Mono';-inkscape-font-specification:'DejaVu Sans Mono';fill:#03628f;fill-opacity:1;stroke-width:0.2526359"
         d="M 13.253972,8.8837513 V 9.5846388 H 13.067136 V 8.8837513 q 0,-0.1524986 -0.05353,-0.2242032 -0.05353,-0.071705 -0.167647,-0.071705 -0.130281,0 -0.200975,0.092913 -0.06968,0.091903 -0.06968,0.2646002 V 9.5846388 H 12.389477 V 8.4535235 h 0.185826 v 0.1696673 q 0.04949,-0.096953 0.13432,-0.146439 0.08483,-0.050496 0.200975,-0.050496 0.172697,0 0.25753,0.1141214 0.08584,0.1131115 0.08584,0.3433743 z" />
      <path
         id="path1000"
         style="font-style:normal;font-variant:normal;font-weight:normal;font-stretch:normal;font-size:2.06832504px;line-height:1.39999998em;font-family:'DejaVu Sans Mono';-inkscape-font-specification:'DejaVu Sans Mono';fill:#03628f;fill-opacity:1;stroke-width:0.2526359"
         d="m 14.059892,8.5838038 q -0.14139,0 -0.214104,0.1100817 -0.07272,0.1100818 -0.07272,0.3262056 0,0.2151139 0.07272,0.3262055 0.07271,0.1100818 0.214104,0.1100818 0.142399,0 0.215114,-0.1100818 0.07271,-0.1110916 0.07271,-0.3262055 0,-0.2161238 -0.07271,-0.3262056 -0.07271,-0.1100817 -0.215114,-0.1100817 z m 0,-0.1575482 q 0.235312,0 0.359533,0.1524985 0.12523,0.1524986 0.12523,0.441337 0,0.2898483 -0.12422,0.4423468 -0.124221,0.1514887 -0.360543,0.1514887 -0.235313,0 -0.359533,-0.1514887 -0.124221,-0.1524985 -0.124221,-0.4423468 0,-0.2888384 0.124221,-0.441337 0.12422,-0.1524985 0.359533,-0.1524985 z" />
      <path
         id="path1002"
         style="font-style:normal;font-variant:normal;font-weight:normal;font-stretch:normal;font-size:2.06832504px;line-height:1.39999998em;font-family:'DejaVu Sans Mono';-inkscape-font-specification:'DejaVu Sans Mono';fill:#03628f;fill-opacity:1;stroke-width:0.2526359"
         d="m 14.683015,8.4535235 h 0.183806 l 0.196935,0.9139816 0.161588,-0.5837363 h 0.158558 l 0.163608,0.5837363 0.196935,-0.9139816 h 0.183807 L 15.663651,9.5846388 H 15.485905 L 15.305128,8.9645452 15.125362,9.5846388 h -0.177747 z" />
      <path
         id="path1004"
         style="font-style:normal;font-variant:normal;font-weight:normal;font-stretch:normal;font-size:2.06832504px;line-height:1.39999998em;font-family:'DejaVu Sans Mono';-inkscape-font-specification:'DejaVu Sans Mono';fill:#03628f;fill-opacity:1;stroke-width:0.2526359"
         d="m 17.173489,8.4535235 h 0.183806 l 0.196935,0.9139816 0.161588,-0.5837363 h 0.158558 l 0.163608,0.5837363 0.196935,-0.9139816 h 0.183806 l -0.2646,1.1311153 H 17.976378 L 17.795602,8.9645452 17.615835,9.5846388 h -0.177746 z" />
      <path
         id="path1006"
         style="font-style:normal;font-variant:normal;font-weight:normal;font-stretch:normal;font-size:2.06832504px;line-height:1.39999998em;font-family:'DejaVu Sans Mono';-inkscape-font-specification:'DejaVu Sans Mono';fill:#03628f;fill-opacity:1;stroke-width:0.2526359"
         d="M 19.480155,8.8837513 V 9.5846388 H 19.293319 V 8.8837513 q 0,-0.1524986 -0.05353,-0.2242032 -0.05353,-0.071705 -0.167647,-0.071705 -0.13028,0 -0.200975,0.092913 -0.06968,0.091903 -0.06968,0.2646002 V 9.5846388 H 18.61566 V 8.0131965 h 0.185826 v 0.6099943 q 0.04949,-0.096953 0.13432,-0.146439 0.08483,-0.050496 0.200975,-0.050496 0.172697,0 0.257531,0.1141214 0.08584,0.1131115 0.08584,0.3433743 z" />
      <path
         id="path1008"
         style="font-style:normal;font-variant:normal;font-weight:normal;font-stretch:normal;font-size:2.06832504px;line-height:1.39999998em;font-family:'DejaVu Sans Mono';-inkscape-font-specification:'DejaVu Sans Mono';fill:#03628f;fill-opacity:1;stroke-width:0.2526359"
         d="m 20.786998,8.9726246 v 0.090893 h -0.804909 v 0.00606 q 0,0.1848161 0.09594,0.2858086 0.09695,0.1009924 0.27268,0.1009924 0.08887,0 0.185826,-0.028278 0.09695,-0.028278 0.207034,-0.085844 v 0.1848162 q -0.106042,0.043427 -0.205014,0.064635 -0.09796,0.022218 -0.189866,0.022218 -0.26359,0 -0.412049,-0.1575482 -0.148459,-0.1585581 -0.148459,-0.4362873 0,-0.2706597 0.145429,-0.4322476 0.145429,-0.1615879 0.387811,-0.1615879 0.216124,0 0.340345,0.146439 0.12523,0.146439 0.12523,0.39993 z m -0.185826,-0.054536 q -0.004,-0.1636077 -0.07776,-0.2484414 -0.07271,-0.085843 -0.210064,-0.085843 -0.13432,0 -0.221174,0.088873 -0.08685,0.088873 -0.103012,0.2464215 z" />
      <path
         id="path1010"
         style="font-style:normal;font-variant:normal;font-weight:normal;font-stretch:normal;font-size:2.06832504px;line-height:1.39999998em;font-family:'DejaVu Sans Mono';-inkscape-font-specification:'DejaVu Sans Mono';fill:#03628f;fill-opacity:1;stroke-width:0.2526359"
         d="M 22.075661,8.686816 Q 22.016081,8.64036 21.95447,8.619151 21.89286,8.597943 21.819141,8.597943 q -0.173707,0 -0.265611,0.1090718 -0.0919,0.1090719 -0.0919,0.3150964 V 9.5846388 H 21.274791 V 8.4535235 h 0.186836 V 8.674697 q 0.04646,-0.120181 0.1424,-0.1838063 0.09695,-0.064635 0.229253,-0.064635 0.06867,0 0.12826,0.017169 0.05959,0.017169 0.114121,0.053526 z" />
      <path
         id="path1012"
         style="font-style:normal;font-variant:normal;font-weight:normal;font-stretch:normal;font-size:2.06832504px;line-height:1.39999998em;font-family:'DejaVu Sans Mono';-inkscape-font-specification:'DejaVu Sans Mono';fill:#03628f;fill-opacity:1;stroke-width:0.2526359"
         d="m 23.277471,8.9726246 v 0.090893 h -0.80491 v 0.00606 q 0,0.1848161 0.09594,0.2858086 0.09695,0.1009924 0.27268,0.1009924 0.08887,0 0.185826,-0.028278 0.09695,-0.028278 0.207034,-0.085844 v 0.1848162 q -0.106042,0.043427 -0.205014,0.064635 -0.09796,0.022218 -0.189866,0.022218 -0.26359,0 -0.412049,-0.1575482 -0.148459,-0.1585581 -0.148459,-0.4362873 0,-0.2706597 0.145429,-0.4322476 0.145429,-0.1615879 0.387811,-0.1615879 0.216124,0 0.340344,0.146439 0.125231,0.146439 0.125231,0.39993 z m -0.185826,-0.054536 q -0.004,-0.1636077 -0.07776,-0.2484414 -0.07272,-0.085843 -0.210064,-0.085843 -0.13432,0 -0.221174,0.088873 -0.08685,0.088873 -0.103012,0.2464215 z" />
      <path
         id="path1014"
         style="font-style:normal;font-variant:normal;font-weight:normal;font-stretch:normal;font-size:2.06832504px;line-height:1.39999998em;font-family:'DejaVu Sans Mono';-inkscape-font-specification:'DejaVu Sans Mono';fill:#03628f;fill-opacity:1;stroke-width:0.2526359"
         d="m 25.511424,9.221066 q -0.04646,0.1181612 -0.118161,0.3110567 -0.09998,0.26662 -0.13432,0.3251957 -0.04646,0.078774 -0.116141,0.1181611 -0.06968,0.039388 -0.162598,0.039388 H 24.830735 V 9.8593382 h 0.110082 q 0.0818,0 0.12826,-0.047466 0.04646,-0.047467 0.118161,-0.2454117 l -0.437297,-1.112937 h 0.196935 l 0.335295,0.8846937 0.330245,-0.8846937 h 0.196936 z" />
      <path
         id="path1016"
         style="font-style:normal;font-variant:normal;font-weight:normal;font-stretch:normal;font-size:2.06832504px;line-height:1.39999998em;font-family:'DejaVu Sans Mono';-inkscape-font-specification:'DejaVu Sans Mono';fill:#03628f;fill-opacity:1;stroke-width:0.2526359"
         d="m 26.512259,8.5838038 q -0.14139,0 -0.214104,0.1100817 -0.07272,0.1100818 -0.07272,0.3262056 0,0.2151139 0.07272,0.3262055 0.07271,0.1100818 0.214104,0.1100818 0.142399,0 0.215114,-0.1100818 0.07271,-0.1110916 0.07271,-0.3262055 0,-0.2161238 -0.07271,-0.3262056 -0.07271,-0.1100817 -0.215114,-0.1100817 z m 0,-0.1575482 q 0.235312,0 0.359533,0.1524985 0.12523,0.1524986 0.12523,0.441337 0,0.2898483 -0.12422,0.4423468 -0.124221,0.1514887 -0.360543,0.1514887 -0.235313,0 -0.359533,-0.1514887 -0.124221,-0.1524985 -0.124221,-0.4423468 0,-0.2888384 0.124221,-0.441337 0.12422,-0.1524985 0.359533,-0.1524985 z" />
      <path
         id="path1018"
         style="font-style:normal;font-variant:normal;font-weight:normal;font-stretch:normal;font-size:2.06832504px;line-height:1.39999998em;font-family:'DejaVu Sans Mono';-inkscape-font-specification:'DejaVu Sans Mono';fill:#03628f;fill-opacity:1;stroke-width:0.2526359"
         d="M 27.332318,9.1564309 V 8.4555434 h 0.185826 v 0.7008875 q 0,0.1524985 0.05353,0.2242032 0.05454,0.071705 0.167647,0.071705 0.131291,0 0.200975,-0.091903 0.06968,-0.092913 0.06968,-0.2656101 V 8.4555434 h 0.186836 V 9.5846388 H 28.009977 V 9.4149715 q -0.04949,0.097963 -0.13533,0.1484589 -0.08483,0.050496 -0.198955,0.050496 -0.173707,0 -0.25854,-0.1131115 -0.08483,-0.1141215 -0.08483,-0.3443842 z" />
      <path
         id="path1020"
         style="font-style:normal;font-variant:normal;font-weight:normal;font-stretch:normal;font-size:2.06832504px;line-height:1.39999998em;font-family:'DejaVu Sans Mono';-inkscape-font-specification:'DejaVu Sans Mono';fill:#03628f;fill-opacity:1;stroke-width:0.2526359"
         d="m 30.792318,8.686816 q -0.05959,-0.046456 -0.121191,-0.067665 -0.06161,-0.021208 -0.13533,-0.021208 -0.173707,0 -0.26561,0.1090718 -0.0919,0.1090719 -0.0919,0.3150964 V 9.5846388 H 29.991448 V 8.4535235 h 0.186836 V 8.674697 q 0.04646,-0.120181 0.142399,-0.1838063 0.09695,-0.064635 0.229253,-0.064635 0.06868,0 0.128261,0.017169 0.05958,0.017169 0.114121,0.053526 z" />
      <path
         id="path1022"
         style="font-style:normal;font-variant:normal;font-weight:normal;font-stretch:normal;font-size:2.06832504px;line-height:1.39999998em;font-family:'DejaVu Sans Mono';-inkscape-font-specification:'DejaVu Sans Mono';fill:#03628f;fill-opacity:1;stroke-width:0.2526359"
         d="m 31.994129,8.9726246 v 0.090893 h -0.80491 v 0.00606 q 0,0.1848161 0.09594,0.2858086 0.09695,0.1009924 0.272679,0.1009924 0.08887,0 0.185826,-0.028278 0.09695,-0.028278 0.207035,-0.085844 v 0.1848162 q -0.106042,0.043427 -0.205015,0.064635 -0.09796,0.022218 -0.189866,0.022218 -0.26359,0 -0.412049,-0.1575482 -0.148459,-0.1585581 -0.148459,-0.4362873 0,-0.2706597 0.14543,-0.4322476 0.145429,-0.1615879 0.387811,-0.1615879 0.216123,0 0.340344,0.146439 0.125231,0.146439 0.125231,0.39993 z m -0.185826,-0.054536 q -0.004,-0.1636077 -0.07776,-0.2484414 -0.07271,-0.085843 -0.210064,-0.085843 -0.13432,0 -0.221173,0.088873 -0.08685,0.088873 -0.103013,0.2464215 z" />
      <path
         id="path1024"
         style="font-style:normal;font-variant:normal;font-weight:normal;font-stretch:normal;font-size:2.06832504px;line-height:1.39999998em;font-family:'DejaVu Sans Mono';-inkscape-font-specification:'DejaVu Sans Mono';fill:#03628f;fill-opacity:1;stroke-width:0.2526359"
         d="m 32.825297,9.0160514 h -0.06161 q -0.162598,0 -0.245412,0.057566 -0.0818,0.056556 -0.0818,0.1696673 0,0.1020023 0.06161,0.1585581 0.06161,0.056556 0.170677,0.056556 0.153508,0 0.241372,-0.106042 0.08786,-0.107052 0.08887,-0.2948979 V 9.0160514 Z M 33.18584,8.9392971 V 9.5846388 H 32.999004 V 9.4169913 q -0.05959,0.1009925 -0.150479,0.1494688 -0.08988,0.047466 -0.219153,0.047466 -0.172697,0 -0.27571,-0.096953 -0.103012,-0.097963 -0.103012,-0.2615705 0,-0.1888558 0.126241,-0.2868185 0.12725,-0.097963 0.372662,-0.097963 h 0.249451 v -0.029288 q -10e-4,-0.1353299 -0.06867,-0.1959254 -0.06766,-0.061605 -0.216124,-0.061605 -0.09493,0 -0.191885,0.027268 -0.09695,0.027268 -0.188856,0.079784 v -0.185826 q 0.103012,-0.039387 0.196935,-0.058576 0.09493,-0.020199 0.183806,-0.020199 0.14038,0 0.239352,0.041407 0.09998,0.041407 0.161588,0.1242207 0.03838,0.050496 0.05454,0.1252306 0.01616,0.073725 0.01616,0.2221833 z" />
      <path
         id="path1026"
         style="font-style:normal;font-variant:normal;font-weight:normal;font-stretch:normal;font-size:2.06832504px;line-height:1.39999998em;font-family:'DejaVu Sans Mono';-inkscape-font-specification:'DejaVu Sans Mono';fill:#03628f;fill-opacity:1;stroke-width:0.2526359"
         d="m 34.006907,9.1746095 q 0,0.1252306 0.04545,0.1888559 0.04646,0.063625 0.13634,0.063625 h 0.217133 v 0.1575482 h -0.235312 q -0.166638,0 -0.258541,-0.107052 -0.09089,-0.107052 -0.09089,-0.3029773 V 8.1475165 H 33.523153 V 8.0020873 h 0.483754 z" />
      <path
         id="path1028"
         style="font-style:normal;font-variant:normal;font-weight:normal;font-stretch:normal;font-size:2.06832504px;line-height:1.39999998em;font-family:'DejaVu Sans Mono';-inkscape-font-specification:'DejaVu Sans Mono';fill:#03628f;fill-opacity:1;stroke-width:0.2526359"
         d="m 35.252145,9.1746095 q 0,0.1252306 0.04545,0.1888559 0.04646,0.063625 0.13634,0.063625 h 0.217134 v 0.1575482 h -0.235313 q -0.166637,0 -0.25854,-0.107052 -0.09089,-0.107052 -0.09089,-0.3029773 V 8.1475165 H 34.768391 V 8.0020873 h 0.483754 z" />
      <path
         id="path1030"
         style="font-style:normal;font-variant:normal;font-weight:normal;font-stretch:normal;font-size:2.06832504px;line-height:1.39999998em;font-family:'DejaVu Sans Mono';-inkscape-font-specification:'DejaVu Sans Mono';fill:#03628f;fill-opacity:1;stroke-width:0.2526359"
         d="m 36.718555,9.221066 q -0.04646,0.1181612 -0.118161,0.3110567 -0.09998,0.26662 -0.13432,0.3251957 -0.04646,0.078774 -0.116141,0.1181611 -0.06968,0.039388 -0.162598,0.039388 H 36.037866 V 9.8593382 h 0.110082 q 0.0818,0 0.128261,-0.047466 0.04646,-0.047467 0.118161,-0.2454117 l -0.437298,-1.112937 h 0.196936 l 0.335295,0.8846937 0.330245,-0.8846937 h 0.196935 z" />
      <path
         id="path1032"
         style="font-style:normal;font-variant:normal;font-weight:normal;font-stretch:normal;font-size:2.06832504px;line-height:1.39999998em;font-family:'DejaVu Sans Mono';-inkscape-font-specification:'DejaVu Sans Mono';fill:#03628f;fill-opacity:1;stroke-width:0.2526359"
         d="m 10.947305,11.349179 h 0.183806 l 0.196935,0.913981 0.161588,-0.583736 h 0.158558 l 0.163608,0.583736 0.196935,-0.913981 h 0.183806 l -0.2646,1.131115 H 11.750195 L 11.569418,11.8602 11.389652,12.480294 h -0.177747 z" />
      <path
         id="path1034"
         style="font-style:normal;font-variant:normal;font-weight:normal;font-stretch:normal;font-size:2.06832504px;line-height:1.39999998em;font-family:'DejaVu Sans Mono';-inkscape-font-specification:'DejaVu Sans Mono';fill:#03628f;fill-opacity:1;stroke-width:0.2526359"
         d="m 13.315577,11.86828 v 0.09089 h -0.804909 v 0.0061 q 0,0.184817 0.09594,0.285809 0.09695,0.100992 0.27268,0.100992 0.08887,0 0.185826,-0.02828 0.09695,-0.02828 0.207035,-0.08584 v 0.184816 q -0.106042,0.04343 -0.205015,0.06464 -0.09796,0.02222 -0.189866,0.02222 -0.26359,0 -0.412049,-0.157549 -0.148459,-0.158558 -0.148459,-0.436287 0,-0.27066 0.145429,-0.432248 0.145429,-0.161587 0.387811,-0.161587 0.216124,0 0.340345,0.146439 0.12523,0.146439 0.12523,0.39993 z m -0.185826,-0.05454 q -0.004,-0.163608 -0.07776,-0.248442 -0.07271,-0.08584 -0.210064,-0.08584 -0.13432,0 -0.221174,0.08887 -0.08685,0.08887 -0.103012,0.246422 z" />
      <path
         id="path1036"
         style="font-style:normal;font-variant:normal;font-weight:normal;font-stretch:normal;font-size:2.06832504px;line-height:1.39999998em;font-family:'DejaVu Sans Mono';-inkscape-font-specification:'DejaVu Sans Mono';fill:#03628f;fill-opacity:1;stroke-width:0.2526359"
         d="m 14.499209,11.779406 v 0.700888 h -0.186836 v -0.700888 q 0,-0.152498 -0.05353,-0.224203 -0.05353,-0.0717 -0.167648,-0.0717 -0.13028,0 -0.200975,0.09291 -0.06968,0.0919 -0.06968,0.2646 v 0.639282 H 13.634713 V 11.34918 h 0.185827 v 0.169667 q 0.04949,-0.09695 0.134319,-0.146439 0.08483,-0.0505 0.200975,-0.0505 0.172697,0 0.257531,0.114121 0.08584,0.113112 0.08584,0.343374 z" />
      <path
         id="path1038"
         style="font-style:normal;font-variant:normal;font-weight:normal;font-stretch:normal;font-size:2.06832504px;line-height:1.39999998em;font-family:'DejaVu Sans Mono';-inkscape-font-specification:'DejaVu Sans Mono';fill:#03628f;fill-opacity:1;stroke-width:0.2526359"
         d="m 15.303108,11.028023 v 0.321156 h 0.422149 v 0.144419 h -0.422149 v 0.614034 q 0,0.12523 0.04747,0.174717 0.04747,0.04949 0.165627,0.04949 h 0.209055 v 0.148459 h -0.227233 q -0.209055,0 -0.294898,-0.08382 -0.08584,-0.08382 -0.08584,-0.288838 v -0.614034 h -0.301967 v -0.144419 h 0.301967 v -0.321156 z" />
      <path
         id="path1040"
         style="font-style:normal;font-variant:normal;font-weight:normal;font-stretch:normal;font-size:2.06832504px;line-height:1.39999998em;font-family:'DejaVu Sans Mono';-inkscape-font-specification:'DejaVu Sans Mono';fill:#03628f;fill-opacity:1;stroke-width:0.2526359"
         d="m 17.81883,12.070265 q 0,0.12523 0.04545,0.188855 0.04646,0.06363 0.13634,0.06363 h 0.217133 v 0.157548 h -0.235312 q -0.166638,0 -0.258541,-0.107052 -0.09089,-0.107052 -0.09089,-0.302977 v -1.027094 h -0.297927 v -0.145429 h 0.483753 z" />
      <path
         id="path1042"
         style="font-style:normal;font-variant:normal;font-weight:normal;font-stretch:normal;font-size:2.06832504px;line-height:1.39999998em;font-family:'DejaVu Sans Mono';-inkscape-font-specification:'DejaVu Sans Mono';fill:#03628f;fill-opacity:1;stroke-width:0.2526359"
         d="m 19.127692,11.911706 h -0.06161 q -0.162598,0 -0.245412,0.05757 -0.0818,0.05656 -0.0818,0.169667 0,0.102003 0.06161,0.158558 0.06161,0.05656 0.170678,0.05656 0.153508,0 0.241372,-0.106042 0.08786,-0.107052 0.08887,-0.294898 v -0.04141 z m 0.360543,-0.07675 v 0.645342 H 19.301399 V 12.31265 q -0.05959,0.100993 -0.150479,0.149469 -0.08988,0.04747 -0.219153,0.04747 -0.172697,0 -0.27571,-0.09695 -0.103012,-0.09796 -0.103012,-0.261571 0,-0.188855 0.12624,-0.286818 0.127251,-0.09796 0.372663,-0.09796 h 0.249451 V 11.737 q -0.001,-0.135329 -0.06867,-0.195925 -0.06767,-0.06161 -0.216124,-0.06161 -0.09493,0 -0.191885,0.02727 -0.09695,0.02727 -0.188856,0.07978 v -0.185826 q 0.103012,-0.03939 0.196935,-0.05858 0.09493,-0.0202 0.183806,-0.0202 0.14038,0 0.239352,0.04141 0.09998,0.04141 0.161588,0.124221 0.03838,0.0505 0.05454,0.125231 0.01616,0.07372 0.01616,0.222183 z" />
      <path
         id="path1044"
         style="font-style:normal;font-variant:normal;font-weight:normal;font-stretch:normal;font-size:2.06832504px;line-height:1.39999998em;font-family:'DejaVu Sans Mono';-inkscape-font-specification:'DejaVu Sans Mono';fill:#03628f;fill-opacity:1;stroke-width:0.2526359"
         d="m 20.646619,11.388566 v 0.181786 q -0.07978,-0.04646 -0.160578,-0.06968 -0.08079,-0.02323 -0.164618,-0.02323 -0.12624,0 -0.188856,0.04141 -0.06161,0.0404 -0.06161,0.124221 0,0.07574 0.04646,0.113111 0.04646,0.03737 0.231273,0.07272 l 0.07473,0.01414 q 0.13836,0.02626 0.209055,0.105032 0.0717,0.07877 0.0717,0.205014 0,0.167648 -0.119171,0.262581 -0.119171,0.09392 -0.331255,0.09392 -0.08382,0 -0.175727,-0.01818 -0.0919,-0.01717 -0.198955,-0.05252 v -0.191886 q 0.104022,0.05353 0.198955,0.08079 0.09493,0.02626 0.179767,0.02626 0.123211,0 0.190876,-0.04949 0.06766,-0.0505 0.06766,-0.14038 0,-0.12927 -0.247432,-0.178756 l -0.0081,-0.002 -0.06968,-0.01414 q -0.160578,-0.03131 -0.234303,-0.105032 -0.07372,-0.07473 -0.07372,-0.202995 0,-0.162598 0.110082,-0.250461 0.110081,-0.08887 0.314086,-0.08887 0.09089,0 0.174717,0.01717 0.08382,0.01616 0.164618,0.04949 z" />
      <path
         id="path1046"
         style="font-style:normal;font-variant:normal;font-weight:normal;font-stretch:normal;font-size:2.06832504px;line-height:1.39999998em;font-family:'DejaVu Sans Mono';-inkscape-font-specification:'DejaVu Sans Mono';fill:#03628f;fill-opacity:1;stroke-width:0.2526359"
         d="m 21.529292,11.028023 v 0.321156 h 0.422149 v 0.144419 h -0.422149 v 0.614034 q 0,0.12523 0.04747,0.174717 0.04747,0.04949 0.165627,0.04949 h 0.209055 v 0.148459 h -0.227233 q -0.209055,0 -0.294898,-0.08382 -0.08584,-0.08382 -0.08584,-0.288838 v -0.614034 h -0.301967 v -0.144419 h 0.301967 v -0.321156 z" />
      <path
         id="path1048"
         style="font-style:normal;font-variant:normal;font-weight:normal;font-stretch:normal;font-size:2.06832504px;line-height:1.39999998em;font-family:'DejaVu Sans Mono';-inkscape-font-specification:'DejaVu Sans Mono';fill:#03628f;fill-opacity:1;stroke-width:0.2526359"
         d="m 23.399673,11.349179 h 0.183806 l 0.196935,0.913981 0.161588,-0.583736 h 0.158558 l 0.163608,0.583736 0.196935,-0.913981 h 0.183806 l -0.2646,1.131115 H 24.202562 L 24.021786,11.8602 23.842019,12.480294 h -0.177746 z" />
      <path
         id="path1050"
         style="font-style:normal;font-variant:normal;font-weight:normal;font-stretch:normal;font-size:2.06832504px;line-height:1.39999998em;font-family:'DejaVu Sans Mono';-inkscape-font-specification:'DejaVu Sans Mono';fill:#03628f;fill-opacity:1;stroke-width:0.2526359"
         d="m 25.767945,11.86828 v 0.09089 h -0.80491 v 0.0061 q 0,0.184817 0.09594,0.285809 0.09695,0.100992 0.272679,0.100992 0.08887,0 0.185827,-0.02828 0.09695,-0.02828 0.207034,-0.08584 v 0.184816 q -0.106042,0.04343 -0.205015,0.06464 -0.09796,0.02222 -0.189865,0.02222 -0.263591,0 -0.41205,-0.157549 -0.148458,-0.158558 -0.148458,-0.436287 0,-0.27066 0.145429,-0.432248 0.145429,-0.161587 0.387811,-0.161587 0.216123,0 0.340344,0.146439 0.125231,0.146439 0.125231,0.39993 z m -0.185826,-0.05454 q -0.004,-0.163608 -0.07776,-0.248442 -0.07271,-0.08584 -0.210065,-0.08584 -0.13432,0 -0.221173,0.08887 -0.08685,0.08887 -0.103012,0.246422 z" />
      <path
         id="path1052"
         style="font-style:normal;font-variant:normal;font-weight:normal;font-stretch:normal;font-size:2.06832504px;line-height:1.39999998em;font-family:'DejaVu Sans Mono';-inkscape-font-specification:'DejaVu Sans Mono';fill:#03628f;fill-opacity:1;stroke-width:0.2526359"
         d="m 27.013181,11.86828 v 0.09089 h -0.80491 v 0.0061 q 0,0.184817 0.09594,0.285809 0.09695,0.100992 0.27268,0.100992 0.08887,0 0.185826,-0.02828 0.09695,-0.02828 0.207034,-0.08584 v 0.184816 q -0.106042,0.04343 -0.205014,0.06464 -0.09796,0.02222 -0.189866,0.02222 -0.26359,0 -0.412049,-0.157549 -0.148459,-0.158558 -0.148459,-0.436287 0,-0.27066 0.145429,-0.432248 0.145429,-0.161587 0.387811,-0.161587 0.216124,0 0.340345,0.146439 0.12523,0.146439 0.12523,0.39993 z m -0.185826,-0.05454 q -0.004,-0.163608 -0.07776,-0.248442 -0.07271,-0.08584 -0.210064,-0.08584 -0.13432,0 -0.221174,0.08887 -0.08685,0.08887 -0.103012,0.246422 z" />
      <path
         id="path1054"
         style="font-style:normal;font-variant:normal;font-weight:normal;font-stretch:normal;font-size:2.06832504px;line-height:1.39999998em;font-family:'DejaVu Sans Mono';-inkscape-font-specification:'DejaVu Sans Mono';fill:#03628f;fill-opacity:1;stroke-width:0.2526359"
         d="m 27.373725,10.908852 h 0.191885 v 0.909941 l 0.487794,-0.469614 h 0.226223 l -0.445377,0.426188 0.515062,0.704927 h -0.227233 l -0.418109,-0.583736 -0.13836,0.13028 v 0.453456 h -0.191885 z" />
      <path
         id="path1056"
         style="font-style:normal;font-variant:normal;font-weight:normal;font-stretch:normal;font-size:2.06832504px;line-height:1.39999998em;font-family:'DejaVu Sans Mono';-inkscape-font-specification:'DejaVu Sans Mono';fill:#03628f;fill-opacity:1;stroke-width:0.2526359"
         d="m 29.503656,11.86828 v 0.09089 h -0.80491 v 0.0061 q 0,0.184817 0.09594,0.285809 0.09695,0.100992 0.27268,0.100992 0.08887,0 0.185826,-0.02828 0.09695,-0.02828 0.207034,-0.08584 v 0.184816 q -0.106042,0.04343 -0.205015,0.06464 -0.09796,0.02222 -0.189865,0.02222 -0.263591,0 -0.412049,-0.157549 -0.148459,-0.158558 -0.148459,-0.436287 0,-0.27066 0.145429,-0.432248 0.145429,-0.161587 0.387811,-0.161587 0.216124,0 0.340344,0.146439 0.125231,0.146439 0.125231,0.39993 z M 29.31783,11.81374 q -0.004,-0.163608 -0.07776,-0.248442 -0.07271,-0.08584 -0.210065,-0.08584 -0.13432,0 -0.221173,0.08887 -0.08685,0.08887 -0.103012,0.246422 z" />
      <path
         id="path1058"
         style="font-style:normal;font-variant:normal;font-weight:normal;font-stretch:normal;font-size:2.06832504px;line-height:1.39999998em;font-family:'DejaVu Sans Mono';-inkscape-font-specification:'DejaVu Sans Mono';fill:#03628f;fill-opacity:1;stroke-width:0.2526359"
         d="m 30.687286,11.779406 v 0.700888 H 30.50045 v -0.700888 q 0,-0.152498 -0.05353,-0.224203 -0.05353,-0.0717 -0.167648,-0.0717 -0.13028,0 -0.200974,0.09291 -0.06968,0.0919 -0.06968,0.2646 v 0.639282 H 29.822792 V 11.34918 h 0.185826 v 0.169667 q 0.04949,-0.09695 0.13432,-0.146439 0.08483,-0.0505 0.200975,-0.0505 0.172697,0 0.25753,0.114121 0.08584,0.113112 0.08584,0.343374 z" />
      <path
         id="path1060"
         style="font-style:normal;font-variant:normal;font-weight:normal;font-stretch:normal;font-size:2.06832504px;line-height:1.39999998em;font-family:'DejaVu Sans Mono';-inkscape-font-specification:'DejaVu Sans Mono';fill:#03628f;fill-opacity:1;stroke-width:0.2526359"
         d="m 31.737608,11.493598 v -0.584746 h 0.185826 v 1.571442 h -0.185826 v -0.1424 q -0.04646,0.08382 -0.124221,0.128261 -0.07675,0.04343 -0.177746,0.04343 -0.205015,0 -0.323176,-0.158559 -0.117152,-0.159568 -0.117152,-0.439317 0,-0.275709 0.118162,-0.432247 0.118161,-0.157548 0.322166,-0.157548 0.102002,0 0.179766,0.04444 0.07776,0.04343 0.122201,0.127251 z m -0.546369,0.422148 q 0,0.216124 0.06867,0.326206 0.06868,0.110081 0.202994,0.110081 0.13432,0 0.204005,-0.111091 0.0707,-0.111092 0.0707,-0.325196 0,-0.215114 -0.0707,-0.325196 -0.06968,-0.111091 -0.204005,-0.111091 -0.134319,0 -0.202994,0.110082 -0.06867,0.110081 -0.06867,0.326205 z" />
    </g>
  </g>
  <path
     id="path5063"
     d="m 23.845876,28.98401 c -0.492582,0.09161 -0.984404,0.198824 -1.458047,0.364271 -0.624348,0.22487 -1.224338,0.513784 -1.795077,0.85189 -0.323699,0.193716 -0.631072,0.414806 -0.923809,0.652543 -0.317235,0.261893 -0.627603,0.532292 -0.912021,0.830021 -0.437144,0.43196 -0.8212,0.913487 -1.208049,1.389803 -0.305662,0.409335 -0.57984,0.84116 -0.84887,1.274907 -0.339216,0.618963 -0.664172,1.245982 -0.954577,1.889483 -0.184234,0.386297 -0.361845,0.775658 -0.536833,1.166221 -0.204361,0.283109 -0.470557,0.51538 -0.762772,0.70425 -0.967729,0.646744 -1.941554,1.28503 -2.893307,1.955128 -0.762021,0.586472 -1.514831,1.185294 -2.2515606,1.803265 -1.1477409,0.975155 -2.3068618,1.937916 -3.4186137,2.954346 -0.3887261,0.361505 -0.7761049,0.725907 -1.1451079,1.107042 -0.1460708,0.167695 -0.1744201,0.444565 -0.023051,0.618364 0.1528196,0.21187 0.3509217,0.38567 0.5358401,0.568632 0.2666441,0.258339 0.555421,0.492881 0.8671314,0.694835 1.2131056,0.834205 2.431653,1.660408 3.6528329,2.482738 2.2359638,1.51654 4.4711228,3.034265 6.7055768,4.553033 2.011192,1.554803 4.022369,3.109606 6.03357,4.664408 0.154696,0.296856 0.334652,0.591704 0.385222,0.928238 0.02518,1.19001 0.02376,2.38043 0.0366,3.570611 0.02876,3.354042 0.05229,6.708139 0.08435,10.062144 0.02138,1.619224 0.04563,3.238434 0.08673,4.857267 0.01664,0.636223 0.03374,1.272647 0.08768,1.906996 0.03303,0.507792 0.06606,1.015583 0.09909,1.523374 -0.02946,0.40264 -0.261868,0.745531 -0.422339,1.104606 -0.942273,1.954415 -1.919618,3.891587 -2.879879,5.837138 -0.533644,1.084217 -1.064035,2.170197 -1.566192,3.26943 -0.254906,0.576028 -0.50185,1.156017 -0.711915,1.750143 -0.207236,0.559282 -0.397272,1.124862 -0.586391,1.690385 -0.228267,0.773305 -0.412825,1.559802 -0.550704,2.354189 -0.06651,0.382179 -0.114632,0.767349 -0.130149,1.155116 -0.03754,0.553163 -0.07867,1.106583 -0.140772,1.657403 -0.05383,0.29891 -0.112803,0.59792 -0.126609,0.90206 0.02257,0.26897 0.181073,0.50818 0.379121,0.68258 0.218477,0.15851 0.47514,0.25806 0.731241,0.33915 0.575189,0.20698 1.14626,0.43953 1.748627,0.55628 0.263009,0.0633 0.554842,0.12794 0.812194,0.009 0.235491,-0.11445 0.449951,-0.31344 0.501256,-0.58014 0.04277,-0.27033 -0.09457,-0.53675 -0.309085,-0.69646 -0.2771,-0.21325 -0.605385,-0.35413 -0.86749,-0.58859 -0.214105,-0.17274 -0.341116,-0.42232 -0.469056,-0.65987 -0.141865,-0.28081 -0.275152,-0.56984 -0.354497,-0.87506 -0.06226,-0.271951 -0.102179,-0.552784 -0.06559,-0.831496 0.05964,-0.724954 0.217193,-1.437257 0.387978,-2.142919 0.135449,-0.533947 0.291119,-1.06273 0.481246,-1.579932 0.403448,-1.148207 0.864403,-2.275519 1.364565,-3.384828 0.227886,-0.542428 0.509643,-1.059402 0.76835,-1.587272 0.912925,-1.830032 1.835973,-3.654984 2.758,-5.480436 0.176083,0.445782 0.259088,0.920623 0.404303,1.376401 1.344221,4.544415 2.688444,9.088826 4.032666,13.633242 0.324342,0.74775 0.632951,1.50317 0.997878,2.23243 0.149707,0.26337 0.360437,0.51258 0.654955,0.61466 0.293567,0.12391 0.614415,0.15673 0.921954,0.23218 0.578937,0.11145 1.164576,0.20452 1.755464,0.21134 0.316785,0.0507 0.662108,-0.0874 0.83541,-0.362 0.116677,-0.21212 0.174658,-0.46718 0.111449,-0.70547 -0.06131,-0.25751 -0.268902,-0.46783 -0.522048,-0.54067 -0.280665,-0.0933 -0.577583,-0.12888 -0.85934,-0.21983 -0.25595,-0.0711 -0.495267,-0.1929 -0.700222,-0.36233 -0.283112,-0.21113 -0.538754,-0.45604 -0.805232,-0.68725 -0.302099,-0.331 -0.502468,-0.739097 -0.653933,-1.157196 -0.21814,-0.55823 -0.379515,-1.136699 -0.560873,-1.707858 -0.370631,-1.263196 -0.739099,-2.527016 -1.093357,-3.794919 -1.151672,-4.071903 -2.306242,-8.142983 -3.456202,-12.215367 -0.08365,-0.332664 -0.168004,-0.670048 -0.16444,-1.015412 -0.02804,-0.561105 -0.05394,-1.122279 -0.05775,-1.684166 -0.05085,-3.33187 -0.06273,-6.664172 -0.08935,-9.996287 -0.0095,-1.520041 -0.02138,-3.04008 -0.03184,-4.560119 1.375542,3.574024 2.747496,7.149445 4.125247,10.722598 0.36671,0.93139 0.73967,1.860423 1.128598,2.782728 0.270541,0.611437 0.595809,1.196609 0.891586,1.795911 0.523283,1.022516 1.031312,2.052691 1.542809,3.081111 0.140915,0.284946 0.455536,0.468646 0.770514,0.476684 0.237392,0.0107 0.47312,-0.07046 0.679929,-0.181287 0.263935,-0.150658 0.507648,-0.365242 0.626416,-0.651311 0.07532,-0.197661 0.100037,-0.429797 -0.0047,-0.621923 -0.18654,-0.427145 -0.492131,-0.78491 -0.742592,-1.174224 -0.47457,-0.672686 -0.928442,-1.359998 -1.348239,-2.068317 -0.361292,-0.59316 -0.693901,-1.204186 -0.983572,-1.835607 -0.456463,-1.029371 -0.857961,-2.081978 -1.264427,-3.131814 -0.670424,-1.769948 -1.346931,-3.537655 -2.005973,-5.311875 -0.813073,-2.205852 -1.631705,-4.409676 -2.430188,-6.620867 -0.309916,-0.85247 -0.619833,-1.70494 -0.92975,-2.557406 -0.05252,-2.186007 -0.10527,-4.372012 -0.157785,-6.558018 0.05394,-0.239586 0.266168,-0.424152 0.505889,-0.464119 0.684253,-0.130482 1.368722,-0.270456 2.033705,-0.479907 0.575039,-0.206524 1.142997,-0.439221 1.671152,-0.748768 0.530627,-0.305266 1.037562,-0.654666 1.49179,-1.06613 0.338265,-0.298465 0.66237,-0.614263 0.963516,-0.950177 0.35502,-0.396184 0.680382,-0.818288 0.979225,-1.258183 0.27767,-0.424952 0.541152,-0.859297 0.771345,-1.31201 0.210303,-0.403311 0.381301,-0.826113 0.540036,-1.251936 0.19557,-0.534573 0.334369,-1.087404 0.48745,-1.635042 0.135924,-0.489228 0.22052,-0.990196 0.294494,-1.491934 0.08198,-0.593553 0.127132,-1.19301 0.132121,-1.792206 -0.0047,-0.925844 -0.110734,-1.850124 -0.296941,-2.756683 -0.119528,-0.527647 -0.240124,-1.05583 -0.415542,-1.567943 -0.138063,-0.407713 -0.29131,-0.810977 -0.467464,-1.203757 -0.291145,-0.621963 -0.618955,-1.229298 -1.025539,-1.784156 -0.21244,-0.288337 -0.428304,-0.575196 -0.65752,-0.850492 -0.352548,-0.428883 -0.759369,-0.809143 -1.191189,-1.156908 -0.496717,-0.405618 -1.03357,-0.763272 -1.600197,-1.063559 -0.474095,-0.248799 -0.975992,-0.43798 -1.484876,-0.602077 -0.326052,-0.10912 -0.667833,-0.161826 -1.005029,-0.225178 -0.515086,-0.08258 -1.036588,-0.112992 -1.55752,-0.126039 -0.287769,-0.0074 -0.575325,-0.01189 -0.857367,0.05474 -0.04135,0.0066 -0.0827,0.01354 -0.123805,0.0202 z m 1.823972,1.638346 c 0.54574,0.04575 1.085325,0.15339 1.611746,0.302452 0.506175,0.165414 1.000847,0.373544 1.458569,0.646661 0.366878,0.225368 0.720779,0.471959 1.046449,0.754205 0.328167,0.269413 0.63547,0.564646 0.911643,0.887124 0.302121,0.36357 0.575942,0.750034 0.838903,1.142525 0.165628,0.246667 0.301694,0.51035 0.426806,0.779316 0.199609,0.401952 0.356943,0.823043 0.514539,1.242803 0.225273,0.806894 0.411883,1.627883 0.482555,2.464176 0.05869,0.562863 0.06226,1.129967 0.02781,1.694531 -0.02138,0.477252 -0.07462,0.952611 -0.158974,1.422874 -0.07509,0.486785 -0.178935,0.968871 -0.307397,1.444256 -0.149231,0.533205 -0.338266,1.054782 -0.565654,1.559662 -0.24856,0.573348 -0.557074,1.119038 -0.893368,1.645083 -0.34846,0.520342 -0.748034,1.00648 -1.180021,1.459349 -0.341306,0.326875 -0.68373,0.654339 -1.066409,0.93325 -0.504083,0.380787 -1.061015,0.688981 -1.639097,0.941863 -0.294826,0.127584 -0.602723,0.221994 -0.908671,0.318554 -0.517367,0.156883 -1.055883,0.251951 -1.59737,0.253501 -0.648609,-0.05613 -1.290018,-0.174159 -1.926557,-0.307849 -0.436478,-0.0914 -0.86528,-0.221162 -1.271222,-0.406896 -0.342852,-0.149872 -0.678456,-0.317834 -1.00313,-0.503346 -0.453467,-0.293434 -0.89351,-0.611074 -1.281226,-0.988793 -0.554603,-0.524133 -1.003129,-1.149423 -1.399733,-1.798323 -0.183688,-0.29909 -0.332929,-0.617002 -0.474429,-0.937672 -0.171046,-0.423396 -0.330973,-0.852256 -0.43774,-1.296994 -0.225748,-0.844642 -0.321479,-1.718685 -0.357557,-2.590392 -0.02043,-0.593976 0.04483,-1.189132 0.169788,-1.769529 0.04943,-0.260304 0.123851,-0.520939 0.272788,-0.743299 0.139987,-0.176964 0.348652,-0.283885 0.569316,-0.318265 0.521993,-0.09574 1.069965,-0.04915 1.573907,-0.236584 0.325601,-0.114015 0.617814,-0.382079 0.68328,-0.730756 0.06368,-0.395325 -0.04728,-0.809332 -0.285202,-1.129398 -0.15446,-0.210872 -0.353666,-0.390195 -0.570858,-0.53512 -0.202936,-0.115773 -0.438427,-0.146974 -0.666265,-0.178032 -0.222421,-0.05205 -0.278479,-0.37353 -0.12333,-0.526175 0.174182,-0.191219 0.312078,-0.415916 0.472811,-0.619549 0.427162,-0.576045 0.857224,-1.152415 1.342202,-1.681592 0.609948,-0.660857 1.311881,-1.243351 2.103116,-1.674843 0.286772,-0.159902 0.584355,-0.300464 0.884315,-0.433227 0.539871,-0.209899 1.105286,-0.350693 1.680088,-0.421465 0.306708,-0.04631 0.61691,-0.05893 0.926399,-0.06742 0.03897,10e-4 0.07795,0.0022 0.116913,0.0033 z m -11.134229,9.714032 c 0.03137,0.258584 -0.02414,0.517465 -0.0074,0.776822 0.0033,0.634148 0.08375,1.265629 0.210087,1.88643 0.09463,0.482603 0.190223,0.966405 0.331655,1.437739 0.185041,0.573518 0.396352,1.138556 0.626186,1.695507 0.249522,0.573016 0.536376,1.130416 0.878848,1.653745 0.314574,0.501441 0.67314,0.975031 1.069029,1.414981 0.411383,0.448174 0.886785,0.8333 1.384808,1.180649 0.427852,0.303205 0.89546,0.5436 1.362735,0.779029 0.389593,0.192432 0.794109,0.352111 1.206635,0.487995 0.303001,0.106437 0.607381,0.208877 0.911071,0.313311 0.210302,0.0776 0.331066,0.28919 0.366639,0.501251 0.024,0.361719 0.01663,0.725397 0.02804,1.087894 0.02138,1.151947 0.04326,2.303894 0.06488,3.45584 -5.419384,-3.559801 -10.83876,-7.119603 -16.258135,-10.679403 1.6060283,-1.303429 3.2088867,-2.610936 4.816893,-3.911822 0.82945,-0.619549 1.660396,-1.237061 2.500678,-1.84188 0.162373,-0.107456 0.308962,-0.251332 0.488928,-0.32163 l 0.0097,0.04436 z"
     style="color:#000000;font-style:normal;font-variant:normal;font-weight:normal;font-stretch:normal;font-size:medium;line-height:normal;font-family:sans-serif;font-variant-ligatures:normal;font-variant-position:normal;font-variant-caps:normal;font-variant-numeric:normal;font-variant-alternates:normal;font-feature-settings:normal;text-indent:0;text-align:start;text-decoration:none;text-decoration-line:none;text-decoration-style:solid;text-decoration-color:#000000;letter-spacing:normal;word-spacing:normal;text-transform:none;writing-mode:lr-tb;direction:ltr;text-orientation:mixed;dominant-baseline:auto;baseline-shift:baseline;text-anchor:start;white-space:normal;shape-padding:0;clip-rule:nonzero;display:inline;overflow:visible;visibility:visible;opacity:1;isolation:auto;mix-blend-mode:normal;color-interpolation:sRGB;color-interpolation-filters:linearRGB;solid-color:#000000;solid-opacity:1;vector-effect:none;fill:#0099dd;fill-opacity:1;fill-rule:nonzero;stroke:none;stroke-width:1.76043832;stroke-linecap:round;stroke-linejoin:miter;stroke-miterlimit:4;stroke-dasharray:none;stroke-dashoffset:0;stroke-opacity:1;color-rendering:auto;image-rendering:auto;shape-rendering:auto;text-rendering:auto;enable-background:accumulate" />
  <path
     style="fill:none;stroke:#0099dd;stroke-width:0.58769453px;stroke-linecap:butt;stroke-linejoin:miter;stroke-opacity:1"
     d="M 0.00285937,103.37721 C 94.926626,104.30094 132.93447,102.38899 193.39084,105.53988"
     id="path5065" />
</svg>
